<svg xmlns="http://www.w3.org/2000/svg" viewBox="0 0 400 26.465">
  <defs/>
  <g fill-rule="evenodd">
    <path fill="#fff" d="M4.5.185c0 .092-.076.121-.168.064-.256-.158-.825.074-.738.302.042.11-.093.305-.3.434-.346.215-.358.212-.149-.042.194-.234.194-.276-.002-.276-.127 0-.305.168-.397.375-.091.206-.3.364-.464.35-.214-.017-.283.076-.248.334.039.286-.026.347-.325.305-.267-.037-.429.07-.568.375-.107.235-.244.427-.304.427C.722 2.833 0 4.048 0 4.241c0 .062.075.066.167.009.091-.057.166-.024.166.073a.173.173 0 01-.169.177c-.181 0-.225 16.059-.048 17.542.06.503.175.791.317.791.13 0 .183.105.127.25-.068.179.017.251.297.253.279.002.328.043.171.143-.169.108-.139.163.125.232.213.056.313.183.258.326-.114.299.507.868.955.875.188.002.453.192.589.421.232.389.23.396-.02.093-.148-.177-.268-.249-.268-.158 0 .344.391.535.919.449.452-.073.565-.028.658.264l.112.352h16.83c14.5 0 16.812-.032 16.697-.237-.073-.13-.091-1.199-.039-2.375.083-1.902-.051-2.929-.296-2.262-.042.116-.14.17-.219.122-.078-.048-6.898-.086-15.157-.083-13.241.005-15.026-.024-15.111-.246-.053-.139-.206-.252-.339-.252-.14 0-.192.081-.123.192.072.117.046.148-.066.078-.102-.063-.143-.223-.092-.356.06-.156-.062-.302-.341-.408-.238-.09-.432-.26-.431-.377.002-.147.052-.135.164.038.089.137.163.168.164.069a.429.429 0 00-.088-.271c-.05-.05-.086-3.068-.079-6.707.006-4.058-.05-6.578-.145-6.519-.086.053-.131-.036-.1-.197.031-.16.062-.348.069-.417.007-.069.07-.106.141-.083.071.023.239-.055.375-.173.136-.117.397-.329.58-.47.183-.142.24-.21.127-.153-.142.072-.172.014-.095-.187.07-.181.138-.216.179-.091.037.11.148.151.246.091.105-.065.129-.032.059.082-.09.145 3.565.192 14.798.192 9.31 0 14.953-.06 15.015-.159.054-.088.207-.118.339-.067.153.059.318-.076.451-.369.131-.286.148-.482.046-.516-.103-.034-.133-.782-.082-1.975.046-1.056.058-1.995.028-2.085C37.782-.068 4.5-.045 4.5.185m40.169.273c.002.315.047.389.144.236.112-.177.162-.165.248.057.059.154.066.345.016.426-.129.209.599 1.837.774 1.729.08-.05.096.039.035.196-.08.209-.05.249.111.15.141-.087.181-.072.112.041-.145.234.051.731.242.613.082-.051.149.076.149.282 0 .453 1.344 3.325 1.508 3.224.064-.04.159.19.211.511.101.625.663 1.473.851 1.285.063-.063.064.016.003.175-.171.445.244 1.284.634 1.284.262 0 .294.048.146.226-.143.173-.111.324.136.638.178.227.371.631.429.899.183.839.621 1.732.798 1.623.097-.06.118-.022.049.089-.145.235.298.715.601.653.133-.028.199.087.171.296-.028.206.138.505.417.75l.463.409-.404-.458c-.223-.252-.322-.459-.221-.459.271 0 .888.845.763 1.046-.062.1-.026.122.086.054.108-.067.193-.023.195.099.002.158.047.15.164-.032.133-.205.162-.187.164.1.003.401 1.168 1.024 1.514.81.136-.084.165-.06.084.071-.089.143-.005.169.298.093.232-.058.519-.044.639.03.401.25 1.176.273 11.353.337l10.136.064-.052 4.164-.053 4.165 3.205-.001h3.204l.006-12.916C84.003 2 83.975.5 83.752.5 83.613.5 83.5.421 83.5.323c0-.097.07-.133.155-.08a.184.184 0 00.252-.061c.059-.095-1.16-.163-3.113-.175l-3.211-.018.049 5.841.049 5.842-9.824-.044c-5.404-.025-9.79.012-9.748.08.043.069-.002.125-.099.125s-.177-.114-.177-.253c0-.189-.115-.228-.458-.153-.353.077-.401.059-.208-.078.218-.155.215-.178-.024-.18-.291-.002-.553-.429-.622-1.012-.012-.097-.081-.14-.154-.094-.073.045-.242.013-.375-.071-.166-.106-.177-.154-.034-.156.115-.002.209-.114.209-.25 0-.284-1.318-2.921-1.334-2.669-.006.091-.162-.015-.346-.236-.235-.282-.278-.438-.143-.521.227-.14-.889-2.628-1.119-2.493-.078.045-.165-.123-.194-.375-.034-.291-.156-.463-.334-.472-.154-.007-.196-.048-.094-.09.231-.095-.533-2.082-.877-2.282-.128-.074-.19-.206-.136-.292C51.649.061 50.321 0 48.177 0h-3.51l.002.458M90.666.021l-.042 13.186-.041 13.123h17.012c15.097 0 17.048-.029 17.334-.257.306-.246.303-.249-.062-.072-.353.171-.367.161-.18-.139.144-.23.335-.303.66-.252.251.04.513-.018.581-.128.078-.127.053-.157-.069-.081-.112.069-.192.017-.192-.126 0-.152.112-.215.298-.166.443.116 1.237-.568 1.113-.959-.058-.183-.021-.317.087-.317.104 0 .135.094.069.209-.065.114.033.058.219-.125.186-.184.31-.382.277-.441-.034-.059.052-.151.192-.205.168-.065.226-.242.174-.532-.057-.314-.018-.411.142-.35.318.122.793-1.119.535-1.399-.142-.154-.141-.179.001-.099.105.059.232 0 .283-.131.05-.131.001-.275-.108-.319-.148-.061-.146-.085.009-.095.115-.007.209-.13.209-.273 0-.163-.078-.213-.209-.134-.165.099-.166.073-.004-.128.162-.199.162-.299 0-.473-.165-.178-.148-.201.088-.118.247.087.291-.001.291-.576 0-.562-.047-.661-.273-.575-.205.079-.231.052-.105-.107.143-.179.15-.822.019-1.754-.016-.114-.134-.208-.262-.208-.127 0-.189-.069-.137-.152.051-.084 0-.191-.116-.237-.166-.067-.166-.087-.001-.098.115-.007.209-.092.209-.19 0-.097-.075-.13-.167-.073-.092.057-.167-.051-.167-.24s-.083-.343-.184-.343c-.102 0-.146-.101-.099-.224.143-.373-.18-.749-.381-.443-.142.216-.164.213-.166-.028-.002-.153-.059-.309-.128-.347-.069-.039-.035-.049.075-.023.114.027.16-.056.107-.194-.051-.133-.16-.241-.241-.241a.15.15 0 01-.149-.148c0-.082.128-.138.285-.125.169.013.304-.114.332-.311l.047-.333-.164.333-.164.334.046-.334c.027-.194.154-.315.305-.29.297.049.646-.614.646-1.227 0-.275.066-.378.193-.3.132.082.163.006.099-.24-.052-.198-.026-.318.057-.266.193.119.19-.107-.006-.417-.103-.163-.069-.301.107-.43.206-.151.221-.261.071-.541-.141-.263-.14-.382.004-.471.128-.079.148-.046.058.099-.089.144-.069.178.058.099.215-.133.268-1.432.058-1.432-.074 0-.122-.282-.106-.625.033-.774-.07-1.075-.319-.926-.109.066-.098.001.026-.153.185-.229.164-.285-.141-.382-.261-.083-.309-.164-.176-.298.101-.1.183-.262.181-.358-.001-.096-.075-.063-.164.075-.12.186-.162.09-.164-.375-.002-.437-.076-.625-.247-.625-.15 0-.208-.098-.149-.25.061-.161-.004-.25-.182-.25-.153 0-.229-.078-.17-.174.118-.191-.203-.659-.452-.659-.085 0-.108.093-.05.208.058.115-.013.063-.157-.115s-.262-.394-.262-.479c0-.085-.109-.065-.242.045-.202.168-.228.129-.161-.243.051-.28.017-.404-.092-.337-.094.059-.172.03-.172-.064s-.113-.128-.252-.075c-.181.069-.222.02-.148-.174.079-.207.034-.243-.192-.157-.198.076-.257.052-.18-.074.068-.11-.083-.291-.366-.437-.669-.346-33.966-.405-33.759-.06.091.151.046.146-.154-.017-.155-.126-.283-.201-.283-.167m49.37.274c-.306.151-.511.362-.466.479.052.136-.014.173-.189.106-.195-.075-.231-.042-.131.12.096.155.066.196-.098.135-.132-.05-.492.165-.819.487-.488.483-.515.543-.166.371.393-.193.389-.176-.084.313-.275.285-.575.519-.666.52-.092.001-.055-.07.083-.159.15-.097.171-.163.052-.164-.314-.004-.452.353-.198.513.172.11.141.146-.125.148-.397.003-1.162 1.502-.993 1.944.052.134.028.202-.052.153-.195-.121-.344.488-.249 1.013.048.262.012.379-.096.313-.095-.059-.172-.027-.172.07s.127.176.283.176c.22 0 .239.045.083.2-.368.369-.279 12.197.092 12.066.218-.077.201-.029-.066.19-.42.345-.384 1.428.042 1.265.141-.055.232.019.232.188 0 .153-.075.231-.166.175-.254-.157-.199.075.085.358.138.139.208.321.156.405-.052.084-.031.153.047.153s.139.207.135.459c-.005.333.068.446.266.413a.358.358 0 01.373.217c.058.151.031.219-.064.16-.091-.056-.165.023-.165.176 0 .182.089.244.259.178.167-.064.217-.032.141.091-.065.105.021.291.19.415s.24.225.157.225c-.082 0 .123.243.456.541.946.845 1.039.906 1.282.825.133-.045.181-.001.116.105-.41.663.109.683 17.841.69l16.981.006-.048-1.292c-.027-.711-.066-1.648-.087-2.084-.021-.435.018-.791.087-.791.294 0 .09-.516-.306-.775-.321-.21-.462-.232-.554-.084-.093.152-3.618.198-14.83.194-11.775-.004-14.687.036-14.605.205.056.115-.023.041-.176-.165-.153-.207-.419-.375-.591-.375s-.313-.07-.313-.156c0-.085-.141-.2-.314-.255-.173-.055-.311-.191-.307-.303.019-.554-.059-.857-.173-.677-.068.106-.106-.704-.086-1.799.02-1.096.081-2.065.135-2.152.107-.174 26.864-.23 27.314-.058.144.056.221.168.17.25-.117.19-.029.188.5-.013.235-.089.428-.244.428-.343 0-.099-.075-.134-.167-.078-.233.145-.209-.141.033-.383.11-.11.129-.2.042-.2-.09 0-.158-.756-.158-1.75 0-.963.04-1.75.089-1.75.049 0 .101-.15.115-.333.017-.231-.078-.334-.308-.334-.183 0-.286-.076-.228-.169.058-.093.193-.12.302-.059.133.075.13.039-.011-.113-.173-.187-.243-.176-.417.06-.194.265-1.164.281-13.959.241l-13.75-.043-.014-2.451c-.008-1.348.049-2.412.126-2.364.145.089.638-.32.638-.53 0-.151.534-.559.74-.566.086-.003.011.104-.166.239-.286.216 1.466.241 14.759.21l15.084-.035-14.75-.085-14.75-.086L158.708 5c8.136-.046 14.792-.027 14.792.042 0 .068.075.125.167.125.091 0 .166-.125.166-.278 0-.153.047-.231.104-.175.056.057.206 0 .333-.127.244-.243.316-.494.105-.362-.069.042-.101-.746-.073-1.752.036-1.252-.011-1.906-.148-2.072-.166-.2-.147-.224.114-.139.26.085.271.071.065-.078-.459-.332-33.617-.225-34.297.111m41.128-.048c.147.176.153.253.021.253-.139 0-.187 3.393-.183 12.909l.006 12.909h3.218c2.747 0 3.218-.036 3.218-.249 0-.138-.081-.219-.18-.181-.128.05-.156-1.078-.097-3.867.062-2.952.133-3.928.284-3.898.111.021 5.008.042 10.882.046 7.364.005 10.647.061 10.573.181-.141.228.898 2.338 1.289 2.618.168.12.305.336.305.481 0 .146.131.372.292.503.16.132.198.192.083.134-.248-.126-.257-.059-.06.448.512 1.319.749 1.78.875 1.702.141-.088.197.11.168.597-.01.168.015.182.077.042.051-.115.166-.208.255-.208.09 0 .121.068.069.152-.052.084 0 .191.115.237.122.049.133.09.026.098-.134.009-.134.173 0 .601l.183.588 3.542-.017c2.451-.011 3.542-.073 3.542-.2 0-.365-1.05-2.449-1.19-2.362-.079.049-.144-.078-.144-.283 0-.512-1.001-2.641-1.222-2.599-.099.019-.224-.265-.277-.632-.054-.367-.365-1.169-.692-1.783-.451-.847-.54-1.137-.368-1.203.124-.048.226-.244.226-.435 0-.194.075-.302.169-.244.094.058.125.193.071.302-.054.108.065.009.266-.22s.413-.417.471-.417c.059 0 .097-.089.085-.199-.012-.109.232-.319.541-.466.31-.147.564-.344.564-.438 0-.094.113-.284.251-.422.139-.139.209-.321.156-.406-.052-.085.022-.2.165-.255.155-.059.261-.299.261-.592 0-.27.066-.451.147-.401.24.148.511-1.176.29-1.416-.14-.153-.135-.175.021-.086.115.064.209.038.209-.059s-.113-.177-.25-.177c-.138 0-.25-.07-.25-.156 0-.211.286-.378.375-.22.038.07.038.014-.001-.124-.07-.245-.046-3.144.035-4.369.026-.384-.023-.58-.127-.516-.103.064-.132-.036-.074-.256.06-.229 0-.412-.165-.505-.169-.094-.226-.275-.163-.515.114-.438-.02-.875-.229-.746-.081.05-.105-.018-.054-.152.06-.157-.045-.287-.294-.363-.529-.163-.909-.599-.836-.961.077-.382-.224-.742-.873-1.048-.281-.132-.361-.201-.178-.154.331.086.331.084.005-.168-.181-.14-.421-.219-.533-.175-.132.05-.168-.018-.101-.192.079-.205.034-.244-.184-.161-.158.061-.248.048-.201-.03.292-.471-1.049-.51-17.67-.519-15.128-.008-16.922.018-16.735.244m45.18 1.819c-.02 1.789.014 2.074.257 2.168.154.059.233.154.175.212-.46.46.917.554 8.126.554 5.506 0 7.415.05 7.565.2.152.152.19 2.657.16 10.458l-.04 10.259-.085-10.334-.085-10.333-7.485-.043c-5.328-.031-7.552-.099-7.716-.235-.175-.145-.279-.139-.431.026-.161.174-.144.198.085.117.157-.055.33-.029.384.059.061.098 3.003.159 7.588.159h7.489l.043 10.459.043 10.458h3.083c2.621 0 3.085-.037 3.099-.25.009-.137.028-4.873.042-10.524.022-8.881.059-10.286.271-10.368.135-.052 3.767-.104 8.072-.116 7.797-.022 8.643-.085 7.842-.58a.38.38 0 01-.157-.297c.002-.119.067-.099.164.052.109.168.163-.471.164-1.959.002-1.444-.058-2.208-.174-2.208-.097 0-.12.094-.051.208.099.165.071.165-.134-.001-.205-.166-4.237-.209-19.265-.206l-19.006.005-.023 2.06m45.2 11.017l.039 13.167 3.221.045c2.195.031 3.186-.009 3.113-.127-.122-.198-.115-7.558.007-7.876.102-.266 21.243-.222 21.243.044 0 .09.056.155.125.144.352-.055.46.067.477.539.025.695 1.084 2.884 1.26 2.606.086-.136.133-.067.135.198.002.223.166.579.365.791.199.212.274.386.167.386a.195.195 0 01-.196-.194c0-.107-.039-.156-.087-.108-.156.156.116.637.297.525.098-.061.126-.028.063.074-.198.32.587 1.703.969 1.706.258.001.285.038.113.147-.172.109-.189.263-.07.622l.159.478 3.57.041c2.379.028 3.486-.013 3.319-.122-.142-.093-.166-.165-.056-.166.26-.004.158-.837-.123-1.011-.122-.075-.283-.099-.359-.052-.075.047-.125.023-.11-.053.061-.319-.249-1.255-.44-1.329-.115-.044-.172-.216-.129-.383.046-.173-.051-.4-.227-.531-.168-.125-.326-.34-.35-.477-.03-.173.034-.151.209.073.301.386.324.266.06-.313-.177-.389-.209-.399-.408-.132-.198.263-.209.258-.128-.064.056-.223-.004-.387-.164-.449-.177-.067-.232-.262-.184-.648.049-.396.023-.481-.092-.301-.121.189-.161.115-.163-.3-.004-.822-.669-1.989-1.013-1.777-.06.038-.089-.112-.065-.332.025-.231-.06-.44-.201-.494-.134-.052-.193-.178-.13-.28.082-.133.151-.127.242.02.155.251.498.069.498-.263 0-.2.214-.321.375-.212.2.135.779-.436.747-.737-.037-.35.023-.39.654-.437.246-.019.242-.058-.037-.367-.233-.257-.251-.332-.068-.291.149.032.237-.061.223-.236-.013-.16.038-.252.113-.206.075.047.182.011.237-.078.055-.089.203-.122.33-.074.274.106.453-.363.348-.91-.054-.279-.011-.365.152-.302.292.112.448-.463.198-.734-.142-.155-.138-.176.02-.088.225.128.287-.1.083-.304-.158-.159-.184-1.436-.027-1.338.218.134.319-.45.319-1.857 0-.856-.068-1.403-.173-1.403-.109 0-.118-.107-.026-.291.162-.322.146-1.15-.026-1.322-.06-.06-.109-.021-.109.086 0 .106-.075.194-.166.194-.092 0-.167-.112-.167-.25a.25.25 0 01.25-.25c.137 0 .25-.079.25-.177 0-.097-.088-.122-.195-.055-.131.081-.16.029-.089-.157.072-.187.021-.278-.158-.278-.211 0-.225-.048-.068-.238.188-.226-.158-1.262-.421-1.262-.049 0-.035.087.03.193.076.123.046.147-.085.066a.3.3 0 01-.117-.35c.051-.134.001-.192-.124-.144-.126.048-.341-.206-.534-.631-.177-.392-.491-.795-.696-.896-.206-.101-.331-.228-.278-.281.142-.141-.576-.49-.767-.372-.094.058-.115-.02-.05-.188.085-.223.045-.263-.178-.178-.158.061-.248.048-.201-.03.296-.477-1.006-.516-17.393-.52-12.074-.004-16.686.046-16.769.181-.081.131-.158.119-.259-.04-.081-.128-.127 5.507-.104 12.94M321.125.262c-.252.137-.458.359-.458.493 0 .135-.094.254-.209.264l-.444.042c-.129.012-.266.135-.304.272-.056.203-.038.207.09.024.111-.158.193-.17.272-.041.063.101.035.184-.062.184s-.178.131-.179.292c-.002.214-.039.235-.139.077-.167-.263-.692-.087-.692.232a.232.232 0 01-.231.232c-.241 0-.854.804-.717.942.044.043-.1.258-.32.478-.419.419-.556 1.013-.19.828.114-.058.079 0-.078.129-.2.164-.233.288-.11.41.122.123.113.214-.032.304-.142.087-.165.059-.072-.091.089-.144.07-.178-.058-.099-.135.084-.143.213-.026.432.221.412.211.501-.055.501-.255 0-.306.49-.08.776.094.12.083.237-.03.306-.311.193-.206 12.584.107 12.584.135 0 .198.077.14.17-.057.093-.174.126-.26.073-.085-.053-.155-.016-.155.081s.132.182.292.189c.174.008.208.047.083.098-.114.046-.207.209-.205.362.002.24.024.244.164.027.089-.137.162-.171.164-.075.001.097-.088.265-.198.375-.155.156-.153.2.01.2.116 0 .164.075.108.166-.122.197.167.767.362.713.075-.022.145.091.154.25.037.621.075.705.326.705.143 0 .214.074.158.164-.201.326 1.339 1.895 1.753 1.786.22-.057.266.005.199.262-.076.29-.029.322.336.23.336-.084.419-.046.401.184-.015.181.086.282.267.267.159-.012.248.044.198.125-.139.225.331.177.586-.06.18-.167.201-.166.106.002-.145.256 27.657.303 27.815.047.051-.083.291-.115.533-.071.634.115.978-.044.733-.339-.158-.191-.098-.225.335-.195.504.035.785-.125 1.677-.95.177-.164.283-.362.235-.44-.049-.077.038-.243.192-.368.238-.193.259-.192.139.006-.097.162-.079.196.058.111.11-.067.154-.266.098-.442-.076-.24.009-.361.344-.488.301-.115.413-.252.346-.426-.056-.146-.028-.212.067-.154.09.056.164-.057.164-.251s-.075-.307-.166-.25c-.295.182-.178-.06.198-.411.307-.286.32-.339.083-.339-.391 0-.353-.276.052-.382.183-.048.333-.174.333-.279 0-.11-.089-.138-.208-.067-.142.085-.135.035.02-.157.126-.155.18-.282.12-.282-.061 0-.027-.156.075-.346.102-.191.139-.47.081-.62-.135-.351-.113-11.127.024-11.672.066-.263.041-.373-.068-.305-.095.058-.211-.043-.259-.225-.048-.183-.019-.374.064-.425.221-.136.185-.414-.047-.365-.109.023-.226-.109-.259-.292-.049-.268-.028-.285.106-.088.275.405.346.122.156-.626-.098-.386-.27-.703-.382-.703-.111 0-.29-.191-.396-.424-.234-.514-.25-.754-.027-.409.089.137.163.171.164.074.002-.098-.115-.323-.259-.5-.145-.178-.215-.23-.157-.116.058.115.044.209-.031.209-.198 0-.577-.656-.474-.821.071-.115-.479-.363-.724-.327-.099.015-.347-.415-.347-.602 0-.092.08-.054.177.083.157.222.169.222.108 0-.038-.137-.25-.25-.471-.25-.302 0-.389-.078-.348-.314.039-.228-.018-.287-.208-.214-.16.061-.263.012-.263-.126 0-.125-.119-.273-.264-.328-.411-.158-.6-.12-.468.094.066.108-.057.071-.275-.081-.492-.345-27.857-.434-28.27-.092-.164.136-.223.135-.223-.002 0-.253-.322-.225-.875.075m40.947-.077a.22.22 0 00.07.3c.132.082.198 3.731.23 12.799.025 6.976-.002 12.608-.059 12.516-.069-.111-.144-.106-.219.016a.371.371 0 00-.011.351c.112.18 5.865.24 6.32.065.237-.091.264-1.171.264-10.5V5.333h1.3c.789 0 1.378-.078 1.5-.2.155-.155.246-.15.408.025.169.181.164.199-.026.091-.157-.09-.195-.07-.115.059.195.316.603.232.484-.1-.113-.314-.086-.296.287.199.153.202.167.277.037.198-.116-.069-.209-.044-.209.057 0 .1.113.225.25.278.138.052.25.209.25.347 0 .172.109.223.343.162.286-.074.309-.049.141.155-.16.192-.157.286.015.445.119.11.172.12.116.02-.055-.099.005-.18.134-.18.175 0 .192.077.07.305-.157.294.052.411.569.322.075-.014.089.054.03.149-.059.096-.177.131-.263.078-.085-.053-.155-.017-.155.08 0 .098.075.177.167.177.092 0 .167.112.167.25 0 .137.075.25.166.25.092 0 .167.112.167.25 0 .137.104.25.231.25.128 0 .222.131.209.292-.013.16.068.273.179.252.123-.024.162.065.1.227-.082.214-.023.247.297.166.221-.055.307-.058.192-.005-.294.135-.259.401.053.401.186 0 .231.097.156.334-.065.202-.03.333.087.333.106 0 .384.15.617.333.314.247.353.334.151.334-.149 0-.272.083-.272.184 0 .102.109.143.242.092.15-.058.21-.013.159.12-.045.117.09.303.3.414.303.158.313.181.049.111-.311-.083-.313-.073-.042.138.161.125.292.35.292.501 0 .321.266.365.396.065.05-.115.048-.002-.004.25-.095.461.16.648.343.25.052-.115.053-.04.002.166-.087.35.056.465.484.391.075-.013.089.054.03.15-.059.095-.177.13-.263.077-.085-.053-.155-.05-.155.006 0 .055.244.214.542.352.303.14.382.218.179.177-.251-.051-.336-.006-.278.147.047.122.192.18.323.13.165-.064.207-.01.137.172-.056.147.027.393.186.553.274.273.282.268.164-.103l-.124-.391.357.332c.22.205.316.437.251.607-.072.188-.018.275.172.275.153 0 .231.077.173.17-.058.093-.186.119-.286.057-.104-.064-.133-.034-.068.071.062.1.257.154.433.12.222-.043.292.011.229.176-.05.131-.17.189-.266.13-.102-.064-.126-.028-.056.084a.465.465 0 00.359.192c.132 0 .24.08.24.177 0 .097-.087.123-.192.057-.121-.074-.148-.045-.072.077.066.107.182.157.257.111.232-.144.519.352.395.682-.099.266-.078.282.141.104.221-.18.255-.144.239.25-.014.357.066.471.359.513.208.029.334.124.281.211a.193.193 0 01-.265.054c-.092-.057-.072.049.045.236.116.187.291.326.387.309.096-.017.153.101.126.261-.03.177.056.292.218.292.159 0 .219.077.149.192-.066.105.01.286.168.401.157.115.3.273.317.35.017.077.084.122.149.1.066-.021.077.072.024.209-.059.155.004.248.168.248.165 0 .227.093.166.25-.061.16.004.25.182.25.153 0 .231.075.175.166-.191.309.092.532.39.308.233-.176.244-.172.068.025-.279.314-.264.558.028.446a.26.26 0 01.331.157c.054.14.024.204-.069.146-.091-.056-.165-.031-.165.056 0 .248 1.33 1.384 1.498 1.28.084-.052.231.054.327.234.17.317.392.328 6.675.342l6.5.015V0h-2.672c-2.217 0-2.688.042-2.767.249-.053.137-.164.207-.248.155-.09-.056-.133 4.168-.107 10.501l.044 10.595h-1.298c-.954 0-1.415-.077-1.742-.291-.425-.279-.439-.278-.329.008.069.181.05.26-.05.198-.09-.056-.164-.207-.164-.336 0-.141-.101-.197-.25-.139-.224.086-.33-.103-.27-.482.011-.068-.055-.125-.147-.125s-.158-.056-.147-.125c.059-.371-.047-.567-.261-.484-.162.062-.211.012-.148-.151.124-.323-.237-.74-.641-.74-.177 0-.276-.076-.218-.169.058-.093.186-.119.286-.058.108.068.132.034.06-.083-.066-.107-.191-.152-.276-.099-.085.053-.155-.066-.155-.263 0-.395-.563-1.21-.724-1.048-.12.12-.609-.255-.609-.467 0-.08.079-.146.176-.146.097 0 .134.07.081.155-.053.085-.02.202.073.26.093.058.17-.015.17-.16 0-.146-.132-.312-.292-.369-.385-.136-.875-.564-.875-.763 0-.087.131-.113.292-.057.276.096.276.09.002-.124-.159-.124-.234-.28-.166-.347.067-.068.009-.098-.128-.067-.16.035-.232-.049-.201-.236.029-.171-.056-.292-.203-.292-.143 0-.215-.097-.166-.225.048-.126-.107-.352-.349-.511-.239-.157-.407-.371-.372-.475.084-.252-.384-.786-.704-.802-.172-.009-.187-.041-.047-.097.288-.116.262-.39-.036-.39-.149 0-.207-.098-.149-.25.06-.157-.002-.25-.167-.25s-.227-.093-.166-.25c.052-.137.013-.25-.089-.25-.101 0-.184-.122-.184-.27 0-.21-.051-.228-.228-.082-.175.145-.282.123-.459-.094-.202-.249-.195-.27.062-.174.195.073.291.028.291-.135 0-.135-.075-.245-.166-.245-.092 0-.167-.113-.167-.25a.246.246 0 00-.24-.25.468.468 0 01-.359-.192c-.074-.12-.046-.148.073-.074.106.065.193.072.193.014 0-.14-.34-.471-.75-.73-.271-.17-.277-.192-.033-.116.175.055.258.026.198-.071-.056-.09-.205-.164-.332-.164a.455.455 0 01-.349-.193c-.074-.119-.046-.147.073-.073.114.07.193.013.193-.141 0-.143-.075-.26-.167-.26-.092 0-.167-.112-.167-.25 0-.303-.27-.331-.396-.042-.05.115-.051.016-.003-.22.06-.293-.009-.505-.215-.667-.282-.222-.286-.216-.052.088.248.323.246.323-.191 0-.412-.304-.504-.716-.105-.469.108.067.132.034.06-.084-.066-.107-.191-.152-.276-.099-.085.053-.155-.104-.155-.348 0-.323-.067-.419-.245-.351-.134.052-.296.011-.359-.091-.069-.112-.038-.138.078-.066.113.069.193.015.193-.131a.476.476 0 00-.193-.369c-.126-.078-.147-.045-.06.095.089.143.056.187-.099.132-.127-.045-.213-.249-.189-.453.028-.252-.064-.4-.286-.458a.685.685 0 01-.43-.404c-.059-.187-.181-.269-.297-.2-.111.066-.097-.005.032-.164.162-.199.171-.282.032-.282-.108 0-.15-.075-.094-.167.059-.095-.081-.167-.323-.167-.235 0-.427-.072-.427-.161 0-.089.094-.139.209-.111.114.028.151.019.082-.019-.069-.039-.076-.152-.014-.251.072-.118.007-.141-.186-.067-.198.076-.401-.006-.611-.247-.355-.41-.401-.551-.125-.38.115.07.158.025.111-.115-.043-.128-.197-.233-.343-.234-.146-.001-.327-.07-.403-.152-.079-.087-.039-.093.098-.014.16.093.195.074.111-.063-.068-.11-.259-.156-.425-.103-.166.052-.417-.02-.558-.16-.324-.325-13.008-.393-13.207-.071M321.34.697c-.321.344-.347.35-.237.053.125-.34.42-.616.534-.502.035.035-.099.237-.297.449M83.792 19.529c-.026 3.513-.046.688-.046-6.279s.02-9.841.046-6.387c.025 3.453.025 9.153 0 12.666m97.5 0c-.026 3.513-.046.688-.046-6.279s.02-9.841.046-6.387c.025 3.453.025 9.153 0 12.666M318.7 2.794c-.11.037-.2.178-.2.313s-.073.201-.163.145c-.104-.064-.091-.216.033-.416.108-.173.272-.268.363-.211.104.064.092.128-.033.169M53.525 4.707c-.17.169-.19.153-.1-.082.064-.169.033-.292-.074-.292-.101 0-.184-.091-.184-.202 0-.127.106-.096.284.082.23.23.244.325.074.494m-15.789.019c-.123.32-.333.354-.502.082-.074-.12-.046-.148.075-.073.109.067.238.003.296-.148.057-.148.133-.238.17-.201.036.036.019.19-.039.34m174.523.544c.127-.049.282-.005.345.096.076.123.036.138-.12.044-.199-.12-.2-.099-.005.141.255.316.607.39.422.09-.07-.113-.046-.147.058-.083.097.06.137.259.089.442-.05.194-.005.333.109.333.108 0 .15.075.093.167-.057.092.033.168.198.169.229.002.248.037.08.144-.171.108-.209.638-.167 2.315.031 1.197-.007 2.088-.084 1.982-.084-.117-.107-.045-.057.182.045.206.013.333-.071.281-.084-.053-.199.137-.256.42-.084.422-.164.496-.436.41-.218-.069-.293-.043-.219.077.068.111.019.147-.125.092-.13-.05-.34.007-.467.127-.184.175-2.606.218-12.396.218h-12.167L187.122 9c.021-2.154.04-3.95.042-3.992.001-.041.093.015.203.125.369.37 24.229.28 24.391-.091.119-.274.131-.274.199.012.042.176.169.267.302.216m131.991-.224c1.742.025-1.858.061-8 .08-6.142.02-11.253-.02-11.359-.087-.174-.11 11.36-.106 19.359.007m3.917-.018c0 .076-.08.139-.177.139-.097 0-.127.08-.066.178.06.098.213.138.34.089.127-.048.311.061.408.244.101.187.265.282.378.219.15-.085.153-.061.011.093-.104.112-.15.355-.102.538.069.262.121.286.247.111.119-.166.135-.149.065.069-.138.43-.147 13.088-.009 13.311.072.117.028.161-.112.114-.267-.089-.923.673-.851.988.027.117-.034.212-.135.212s-.137-.075-.081-.166c.164-.265-.11-.193-.315.082-.254.343-23.245.392-23.456.05-.343-.555-.915-1.132-1.122-1.132-.186 0-.191-.049-.023-.25.114-.138.142-.25.062-.25-.081 0-.125-2.813-.1-6.353.031-4.355-.011-6.422-.134-6.57-.135-.163-.095-.243.163-.325.188-.059.342-.183.342-.273 0-.091-.075-.119-.167-.063-.091.057-.166.06-.166.006 0-.053.192-.17.426-.259.235-.09.379-.24.321-.334-.058-.094-.044-.16.032-.147.546.095 23.716-.043 23.701-.141-.039-.245.023-.319.27-.319.137 0 .25.062.25.139m-318.446.097c-4.049.025-10.724.025-14.833 0s-.796-.045 7.362-.045 11.52.02 7.471.045m85.142 0c-3.422.025-8.972.025-12.334 0s-.562-.046 6.221-.046 9.534.021 6.113.046m6.97.06c.209.15.201.164-.05.083-.176-.057-.258-.029-.198.067.056.091.177.165.27.165.732 0 1.181 2.831.617 3.887-.118.219-.118.287 0 .214a.2.2 0 01.276.063c.059.095-.054.169-.256.169-.252 0-.332.076-.265.25.053.138.029.25-.052.25s-.176-.085-.21-.189c-.043-.128-.142-.11-.307.055-.134.135-.356.207-.493.162-.218-.072-.219-.043-.006.237.19.25.191.274.008.11-.342-.305-24.166-.305-24.17 0-.001.152-.035.156-.125.017-.067-.105-.1-1.361-.072-2.792l.05-2.6h12.158c7.995 0 12.159-.057 12.159-.166 0-.219.351-.209.666.018m83.709-.06c-3.323.025-8.761.025-12.084 0-3.323-.025-.604-.046 6.042-.046s9.365.021 6.042.046m84.541.042l-12 .086 12.042.04c8.124.027 12.042-.015 12.042-.13 0-.094.174-.056.388.084.214.14.439.204.5.142.061-.061.112.022.112.184 0 .204.083.264.268.193.192-.074.241-.031.173.147-.053.137-.042.242.023.232.332-.05.544.04.451.191-.058.093-.174.127-.258.075-.085-.052-.109.021-.055.163.055.141.166.216.248.165.083-.051.15-.013.15.084 0 .098-.08.177-.177.177-.117 0-.159.671-.125 2 .029 1.1-.005 2-.073 2-.069 0-.125.073-.125.161 0 .089.124.114.277.055.186-.071.238-.042.157.089a.46.46 0 01-.35.195c-.126 0-.276.15-.334.333-.059.184-.181.334-.271.334-.091 0-.12.074-.064.164.061.098-.014.121-.184.055-.193-.074-.247-.046-.167.084.076.123.032.159-.122.1-.133-.051-.334.006-.447.127-.167.179-2.402.204-12.167.136-6.58-.046-11.928-.027-11.886.042.043.069-.002.125-.099.125-.265 0-.242-7.535.023-7.8.153-.153 3.028-.191 12.125-.16l11.925.04-12 .087m80.546-.046a8.344 8.344 0 01-1.333.001c-.392-.035-.113-.064.621-.065.733 0 1.054.028.712.064m-121.7.192c-.117.19-.134 20.704-.017 20.821.048.048.088-4.611.088-10.355V5.337l7.458-.045 7.459-.046-7.449-.039c-4.162-.023-7.488.024-7.539.106M136.333 6.371c0 .425-.15.312-.246-.186-.039-.2.001-.317.088-.263.087.054.158.256.158.449M55.121 7.829c-.029.392-.166.29-.237-.177-.028-.186.019-.295.105-.242.086.053.146.242.132.419m254.834 1.626c-.036.345-.066.103-.067-.538-.001-.642.029-.925.066-.629.036.296.037.821.001 1.167M142.333 10.5c0 .11 4.636.167 13.574.167 8.869 0 13.609-.058 13.676-.167.069-.111-4.498-.167-13.573-.167-9.007 0-13.677.057-13.677.167m167.611.444c-.154.155-.139.556.021.556.072 0 .142-.15.156-.333.027-.359-.003-.396-.177-.223M51.052 13.385c-.052.083-.154.052-.229-.068-.074-.12-.092-.286-.041-.369.051-.082.154-.052.228.068.074.12.093.286.042.369m57.865 2.449l-12 .088 12.275-.003c6.752-.001 12.246.046 12.21.105-.095.154.43.33.624.21.09-.056.204.056.254.247.05.192.158.308.239.257.081-.05.148-.001.148.109s.124.29.275.401c.218.159.23.229.057.336-.153.094-.177.069-.082-.084.092-.15.07-.178-.072-.091-.142.089-.191.531-.156 1.44.051 1.36-.646 2.618-1.31 2.363-.117-.044-.212.035-.212.177s-.087.312-.193.377c-.12.074-.147.046-.072-.076.091-.147-2.801-.193-11.989-.188l-12.11.007.022-2.782c.013-1.53.062-2.845.109-2.921.047-.077 5.462-.121 12.034-.099l11.949.04-12 .087m33.359.124c-.07.114 9.543.112 22.391-.003 2.704-.024-1.21-.061-8.699-.083-7.488-.021-13.65.018-13.692.086m74.059 3.209c.213.415.213.416-.14.102-.195-.172-.311-.384-.258-.469.113-.182.12-.176.398.367m107.405 1.655c.278.307.277.318-.03.238-.177-.047-.321-.191-.321-.322 0-.302.002-.301.351.084m-105.743 1.886c.002.069-.072.125-.164.125-.091 0-.165-.168-.164-.375.003-.357.321-.115.328.25M2.158 24.53c.155.049.178.115.064.186-.097.06-.319-.056-.491-.259-.173-.202-.202-.286-.064-.185.137.101.358.217.491.258"/>
  </g>
</svg>
