<svg xmlns="http://www.w3.org/2000/svg" width="400" height="638.328">
  <g fill-rule="evenodd">
    <path d="M185.19 1.026c-.214.564-.39 1.428-.39 1.92s-.209 1.103-.464 1.358c-.553.553-1.219 12.061-.811 14.006.151.721.147 4.141-.009 7.6-.157 3.46-.258 10.88-.225 16.49.079 13.515-.404 16.071-3.347 17.715-1.07.597-2.225 1.085-2.568 1.085-.343 0-.522.163-.399.363.123.199-.164.261-.639.137s-.762-.063-.639.137c.134.216-6.294.322-15.837.263-8.834-.055-22.587.035-30.562.2-7.976.165-14.501.154-14.5-.024 0-.178-.184-.209-.41-.07-.225.139-.36.101-.3-.084.181-.556-1.375-3.717-1.723-3.501-.177.109-.337-5.144-.355-11.673-.026-9.313-.155-12.139-.598-13.11a85.542 85.542 0 01-1.181-2.767c-.339-.841-.774-1.431-.967-1.312-.193.119-.268-.214-.167-.74.252-1.322-.85-3.023-2.872-4.432-.936-.653-3.272-2.659-5.19-4.459-2.954-2.772-3.792-3.338-5.482-3.7-2.165-.465-7.666-.584-8.074-.175-.139.138-.899.291-1.688.339-1.569.095-4.775 2.756-4.424 3.672.102.266-.009.549-.247.629-.286.095-.419 2.135-.393 6.039.021 3.242-.114 5.801-.3 5.686-1.03-.637-1.566 12.484-1.419 34.782.105 16.095.401 20.211 1.409 19.588.203-.125.295.616.211 1.695-.107 1.372.038 2.135.51 2.686.363.423.435.637.16.476-.686-.401-.627.195.124 1.268.775 1.107 2.857 2.218 3.612 1.928.31-.119.564-.021.564.218s.36.34.801.225c.503-.132.703-.052.537.216-.183.296.697.332 2.9.118 4.56-.442 8.669-.328 8.329.231-.533.878 7.241.968 10.449.121 1.702-.449 3.2-.555 5.236-.37 1.699.154 3.829.067 5.271-.217 2.073-.408 2.73-.378 4.588.207 2.403.756 9.673.685 13.089-.127 2.853-.679 23.831-.596 26.153.103 2.754.829 10.766 1.178 13.447.586 4.821-1.065 49.623-1.52 53.796-.546 2.313.539 4.274.615 11.204.435 11.196-.291 10.413-.293 17 .036 11.933.596 25.181.264 24.637-.617-.102-.165 1.591-.3 3.763-.3 2.172 0 3.868.131 3.769.291-.798 1.291 17.624 1.403 21.031.128.99-.371 2.39-.658 3.112-.638 1.497.041 4.679-2.467 4.319-3.404-.113-.295-.048-.537.146-.537 1.773 0 2.023-2.68 2.023-21.677 0-15.295.096-18.456.6-19.661.766-1.833.766-4.291 0-6.124-.478-1.143-.6-3.425-.6-11.2 0-11.361.037-11.213-3.662-14.833-2.986-2.923-4.985-3.515-8.038-2.384-.935.347-2.439.821-3.343 1.055-2.129.55-9.981 5.826-13.425 9.02-1.542 1.431-4.244 7.427-3.075 6.824.299-.153.221-.016-.172.305-1.118.915-1.485 2.888-1.485 7.992 0 3.537-.16 5.032-.637 5.954-.35.678-.556 1.652-.458 2.166.098.514.022.987-.17 1.051-.196.066-.213 2.244-.039 4.967.262 4.091.211 5.03-.325 5.998l-.636 1.147-30.043.079-30.042.079-1.453-.986c-.798-.542-1.665-.863-1.925-.714-.259.148-.333.117-.162-.07.17-.188-.277-.532-.993-.765-.907-.294-1.591-.945-2.249-2.139l-.945-1.716.053-25.319c.057-27.199.093-26.697-2.079-28.949L214.643 0H185.58l-.39 1.026m23.478 3.506c1.765.912 1.721.239 1.727 26.301.007 31.299.497 33.203 9.492 36.833l2.313.934 32.8.122c35.465.133 36.467.098 38.113-1.318l1.087-.934.257-13.935c.276-15.022.241-14.763 2.665-19.583 3.412-6.781 12.541-12.147 15.815-9.296 1.817 1.582 1.905 3.364 1.662 33.344-.248 30.508-.206 29.691-1.613 31.013-1.428 1.342-2.968 1.394-39.671 1.341-51.67-.073-85.782-.09-135.715-.065-51.661.025-49.242.138-50.533-2.36-.639-1.236-.696-56.418-.061-60.038 1.498-8.549 17.525 1.087 18.765 11.282.108.895.275 7.387.371 14.427.186 13.783.272 14.363 2.311 15.567 1.366.808 63.712 1.004 69.252.218 5.429-.77 8.697-3.045 11.054-7.698 1.721-3.398 1.994-8.057 2.02-34.438.019-18.807.168-20.661 1.735-21.524 2.191-1.208 13.921-1.348 16.154-.193m-107.97 94.334c-.622.227-.988.589-.839.83.158.255.075.311-.204.138-.688-.425-3.353 1.334-3.084 2.035.139.361.05.468-.239.289-.311-.192-.386-.007-.232.579.124.475.049.863-.167.863-.465 0-.232 25.718.247 27.096.171.492.47.796.665.676.195-.121.355.342.355 1.028 0 .686-.171 1.142-.38 1.012-.209-.129-.496.387-.638 1.146-.29 1.543.091 3.842.637 3.842.196 0 .241.3.1.666-.14.366-.089.563.113.437.221-.137.321 2.997.251 7.835l-.116 8.062-1.384.904c-.76.497-1.383 1.104-1.383 1.349 0 .287.248.251.7-.104.633-.497.648-.483.155.147-.3.382-.721.587-.936.454-.516-.319-3.558 2.664-3.241 3.177.137.221.043.272-.212.114-.443-.274-3.256 2.449-14.066 13.61-2.53 2.612-4.825 4.767-5.1 4.789-.275.022-.671.067-.881.1-.209.033-.966.915-1.681 1.96-.715 1.045-2.749 3.404-4.519 5.242s-3.17 3.516-3.109 3.729c.06.214-.061.283-.27.154-.209-.129-.888.307-1.51.969-.621.662-3.117 3.237-5.544 5.721-4.628 4.735-5.786 6.495-5.786 8.795 0 .764-.293 2.177-.652 3.14-2.579 6.927-1.174 32.212 1.648 29.651.183-.165.195-.064.028.226-.885 1.531 4.28 2.6 7.192 1.488.981-.375 1.784-.841 1.784-1.036 0-.194.231-.265.514-.156.515.197 3.493-1.851 5.704-3.923.646-.605 1.299-1.1 1.451-1.1.152 0 .387-.347.522-.771.134-.424.878-1.145 1.653-1.602 1.143-.675 1.361-1 1.156-1.729-.198-.703-.161-.768.168-.298.231.33.424.42.428.2.005-.22.56-.713 1.232-1.096.743-.423 1.111-.88.936-1.162-.168-.271-.114-.358.128-.209.982.607 5.356-5.484 4.7-6.546-.13-.211.054-.267.418-.128.437.168 1.266-.341 2.521-1.548 1.028-.989 2.724-2.372 3.768-3.074 1.045-.701 2.193-1.851 2.552-2.556.358-.704 3.913-4.578 7.9-8.609 3.987-4.03 7.2-7.508 7.139-7.729-.06-.222.048-.305.242-.185.193.12.783-.246 1.31-.813.527-.566 1.724-1.561 2.661-2.209.937-.648 2.417-2.145 3.29-3.327 1.021-1.381 2.339-2.558 3.697-3.299 1.16-.634 2.061-1.381 2-1.661-.06-.28.075-.394.3-.255.226.139.41.108.41-.07 0-.593 169.664-.001 170.708.594.5.286 1.13.392 1.4.236.271-.155.363-.14.206.035-.32.354 1.678 2.074 2.208 1.901.186-.06.234.058.108.262-.127.205.535.824 1.47 1.376.935.552 3.05 2.389 4.7 4.081 1.65 1.693 3.536 3.553 4.191 4.134 2.745 2.435 7.086 7.156 7.781 8.462.411.773 1.801 2.267 3.088 3.32 1.287 1.053 3.33 2.996 4.54 4.317 4.002 4.371 6.034 6.246 7.59 7.003.846.411 1.467.862 1.381 1.003-.281.453 2.666 3.978 3.23 3.863.3-.061.555.026.565.193.043.729 1.279 2.625 2.733 4.193.865.933 1.788 2.417 2.052 3.298.468 1.56 1.965 2.805 3.375 2.805.311 0 1.016.354 1.566.787.551.433 1.144.658 1.319.5.174-.158.195-.074.046.186-.319.558 1.291 1.806 1.87 1.449.218-.135.274-.048.125.195-.168.27.309.601 1.238.859 1.855.515 6.11.558 6.11.061 0-.199.315-.282.7-.185 1.473.372 5.237-4.918 4.77-6.705-.119-.458-.032-.647.225-.489.727.45.139-18.465-.642-20.658-.353-.99-.644-2.294-.647-2.898-.016-2.899-2.425-7.866-4.997-10.302-.814-.77-1.806-2.03-2.205-2.8-.703-1.357-9.747-10.4-10.4-10.4-.179 0-.707-.648-1.174-1.439-.573-.971-1.048-1.363-1.46-1.205-.349.134-.506.065-.367-.161.22-.355-.309-.568-1.103-.442-.165.026-.279-.088-.253-.253.026-.165.026-.54 0-.834-.074-.838-9.174-9.939-10.478-10.479-.643-.266-1.169-.653-1.169-.859 0-.206-.178-.265-.395-.131-.221.137-.297-.012-.173-.337.134-.349-.209-.876-.86-1.32-1.394-.952-2.82-2.353-4.572-4.496-.77-.941-2.885-3.261-4.7-5.156-2.849-2.975-3.302-3.639-3.314-4.867-.008-.781-.276-2.591-.595-4.021-.856-3.829-.841-31.556.018-33.217.761-1.473.764-4.802.004-5.807-.373-.492-.592-1.727-.601-3.376-.02-4.088-2.502-8.677-4.517-8.353-.272.043-.818-.062-1.213-.234-2.261-.985-12.373.464-13.008 1.865-.069.152-.361.187-.649.076-.696-.267-4.37 2.91-3.715 3.212.27.125.109.134-.356.021-1.822-.444-8.006 7.294-6.796 8.504.126.126-.083.458-.464.737-.578.422-.694 1.172-.694 4.499 0 2.196-.154 3.898-.343 3.783-.188-.116-.214.195-.057.69.177.556.135.807-.108.657-.489-.303-.928 1.72-.625 2.879.123.47.374.762.557.649.183-.113.333 2.684.333 6.215 0 3.679-.153 6.326-.358 6.199-.197-.122-.503.459-.679 1.29-.284 1.339-.283 2.904.003 8.645.147 2.931-4.355 4.367-8.335 2.661-1.636-.701-1.843-.921-1.602-1.7 1.198-3.873 1.206-8.104.02-10.941-.507-1.215-.606-4.056-.606-17.416 0-16.863-.107-17.952-1.904-19.427-.383-.314-.471-.456-.196-.317.61.309.634.004.08-1.031-.231-.432-.596-.677-.81-.544-.214.132-.34.031-.28-.224.266-1.123-2.575-2.048-5.69-1.852-3.716.233-7.779 1.133-7.331 1.624.19.207.123.242-.158.08-1.399-.804-10.584 5.064-9.832 6.281.135.218.053.277-.181.133-.559-.346-2.581 2.07-2.237 2.673.147.256.121.334-.057.172-.41-.371-1.374.867-1.391 1.785-.007.38-.472.991-1.033 1.359-.588.385-.929.906-.805 1.23.119.309.057.463-.138.343-.778-.481-.96 1.685-1.139 13.577-.139 9.323-.324 12.735-.742 13.749-.717 1.738-.702 2.805.066 4.641.342.819.567 2.141.5 2.939l-.122 1.449-4.122.565c-5.508.755-6.31.447-5.878-2.257.166-1.037.291-2.786.279-3.886-.013-1.1-.03-8.21-.037-15.8-.01-11.633-.109-13.98-.627-14.946-.338-.63-.619-2.07-.624-3.2-.01-2.421-1.306-5.666-2.084-5.218-.279.161-.367.138-.196-.05.171-.188-.813-1.476-2.186-2.862-6.282-6.338-16.589-6.567-22.581-.501-2.312 2.341-4.944 6.629-4.944 8.055 0 .419-.249 1.248-.553 1.842-.662 1.292-1.278 26.101-.762 30.68.583 5.181.154 7.577-1.385 7.725-.715.069-1.3.249-1.301.4-.001.478-5.361.297-6.246-.211-1.414-.811-1.879-5.737-.754-7.993.742-1.487 1.201-4.63.818-5.599-.316-.798-.482-2.97-.822-10.722-.125-2.86-.329-5.47-.453-5.8-.124-.33-.283-1.291-.353-2.135-.071-.844-.373-1.834-.671-2.2-.299-.366-.973-1.475-1.497-2.465a48.754 48.754 0 00-2.016-3.4c-.583-.88-1.295-2.186-1.582-2.902-.784-1.956-3.232-3.965-4.553-3.735-.181.031-.226-.111-.099-.317.358-.578-1.889-2.263-5.193-3.896C154.145 98.552 146 97.565 146 98.771c0 .262-.19.359-.423.215-.714-.441-3.515 1.725-4.352 3.365-.616 1.208-.805 2.446-.855 5.595-.04 2.531-.21 3.953-.457 3.801-.252-.156-.292.598-.113 2.105.493 4.144.661 35.686.194 36.558-.358.67-.862.794-3.308.819-1.587.016-3.821.163-4.964.326-1.334.19-1.99.155-1.834-.098.139-.225-.025-.29-.383-.153-.922.354-1.025-10.039-.121-12.204.775-1.854.794-5.42.039-7.392-.375-.98-.633-3.609-.738-7.508-.154-5.712-.22-6.115-1.365-8.4a223.746 223.746 0 01-1.907-3.9c-.387-.825-.858-1.5-1.046-1.5-.188 0-.227-.3-.086-.666.185-.483.11-.576-.275-.338-.359.222-.434.173-.234-.151.383-.62-1.68-3.349-2.26-2.991-.24.148-.335.107-.212-.092.542-.877-3.234-4.097-4.144-3.535-.286.177-.375.127-.22-.123.311-.504-.83-1.017-1.434-.643-.27.167-.306.069-.098-.267.245-.397.138-.458-.426-.241-.415.159-.63.166-.479.015.359-.359-1.283-1.635-3.063-2.379-1.637-.684-8.972-.768-10.738-.123m195.602 1.425c-.825.087-2.175.087-3 0-.825-.086-.15-.157 1.5-.157s2.325.071 1.5.157m-214.615 1.568c-.283.408-.389.485-.234.173.207-.419.097-.498-.418-.3-.384.147-.784.268-.889.268-.105 0-.077.184.062.41.139.225.105.384-.076.353-.814-.142-1.362.127-2.93 1.437-.922.77-1.985 1.4-2.362 1.4-.828 0-2.438 1.424-2.438 2.156 0 .289-.436 1.345-.97 2.348-.533 1.003-.848 1.959-.7 2.124.149.165.045.171-.23.013-.275-.159-.5-.087-.5.159s-.184.334-.408.195c-.894-.552-3.165.665-4.076 2.184-1.178 1.965-4.752 6.421-5.149 6.421-1.078 0-3.859 3.446-3.632 4.5.036.165-.095.255-.292.2-.835-.234-6.054 5.034-5.82 5.875.161.581.12.667-.141.291-.395-.568-1.117.488-.912 1.334.053.22-.028.275-.181.123-.9-.901-17.615 14.814-21.032 19.773-.87 1.263-2.122 2.575-2.782 2.917-1.717.888-12.415 11.398-12.108 11.896.141.228.069.299-.16.157-.518-.32-1.409.687-1.004 1.135.164.18.097.213-.148.073-.245-.139-1.08.417-1.856 1.236-.776.82-2.061 1.993-2.856 2.608-.795.615-1.817 1.848-2.272 2.74-.455.892-1.504 2.369-2.33 3.282-.826.913-1.803 2.105-2.171 2.649-.622.918-.67 8.174-.67 101.63v100.642l1.022.96c.563.528 1.529 1.724 2.147 2.657.618.933 1.247 1.573 1.398 1.421.152-.151.171-.003.044.329-.267.695 2.386 4.006 3.095 3.864.252-.051.466.088.476.308.011.22.424.968.919 1.662.494.694.899 1.414.9 1.6.001.452 4.031 3.168 4.494 3.028.201-.06.259.062.129.271-.129.21.577.965 1.57 1.678.993.713 1.806 1.407 1.806 1.543 0 .566 2.424 1.616 3.662 1.586 2.106-.05 6.153-1.339 6.028-1.919-.06-.28.054-.407.255-.283.747.462 3.201-5.282 2.642-6.186-.129-.209-.044-.38.189-.38.693 0 .53-6.919-.206-8.759-.567-1.417-.571-1.911-.036-4.908.492-2.759.549-6.039.33-19.033-.145-8.636-.174-15.701-.064-15.7.528.001.194-132.61-.336-133.541-.401-.704-.474-1.965-.289-5 .136-2.233.297-5.049.358-6.259.062-1.21.147-2.526.189-2.924.043-.398.977-1.674 2.075-2.836 1.099-1.161 1.864-2.26 1.7-2.44-.163-.181-.072-.199.203-.041.275.159.5.123.5-.079s.988-1.023 2.196-1.825c1.207-.802 2.626-2.132 3.152-2.956.526-.825 1.422-1.93 1.992-2.457.569-.527.938-1.117.818-1.31-.12-.194-.052-.302.151-.242.45.134 3.094-2.559 2.964-3.02-.051-.181.078-.224.287-.094.209.129.889-.519 1.51-1.44.622-.922 1.691-2.268 2.377-2.992.685-.725 1.141-1.423 1.012-1.552s.061-.121.423.018c.446.171 1.42-.433 3.03-1.879 3.326-2.988 6.114-5.131 6.673-5.131.789 0 2.223-1.796 2.64-3.304.445-1.614 15.992-17.37 18.768-19.022 1.508-.897 4.14-4.391 4.14-5.495 0-.299.119-.471.264-.381.454.281 1.998-3.347 1.726-4.055-.175-.455-.107-.58.209-.385.427.264.641-.649.576-2.454-.01-.272.127-.406.304-.297.177.11.503-.567.725-1.504.222-.937.679-2.423 1.016-3.303.695-1.818.952-18.6.284-18.6-.199 0-.272-.343-.163-.762.11-.419-.066-1.364-.39-2.1s-.746-2.221-.937-3.3c-.48-2.714-1.49-3.384-5.549-3.684-2.82-.208-3.259-.148-3.713.505m232.798.041c-.282.385-.405.475-.274.2.291-.61-.012-.633-1.046-.08-.432.231-.663.619-.512.862.157.255.091.329-.157.176-.538-.332-2.176 1.686-1.827 2.251.141.228.075.302-.147.165-1.404-.867-2.617 24.436-1.372 28.619 1.127 3.788 2.11 5.653 3.923 7.44 1.061 1.046 2.428 2.667 3.038 3.602.662 1.016 1.291 1.588 1.562 1.421.26-.161.343-.102.194.138-.142.23.193.714.745 1.075.551.362 2.431 2.07 4.178 3.795 1.747 1.726 3.303 3.025 3.458 2.887.155-.138.167-.048.025.199-.384.673 1.828 3.494 4.219 5.381 1.161.916 2.38 2.065 2.71 2.555 1.137 1.685 4.563 4.961 4.943 4.726.209-.13.256-.034.104.212-.163.263.388.867 1.338 1.467.888.56 1.615 1.207 1.615 1.438 0 .23.208.29.462.133.285-.176.353-.11.178.173-.156.253.146.863.674 1.362 2.677 2.525 4.904 4.303 5.39 4.303.299 0 .464.135.367.3-.393.667.579 2.121 2.03 3.037 1.435.906 2.886 2.255 5.947 5.528 1.557 1.665 3.815 3.371 4.269 3.225.188-.06.244.05.123.245-.349.565 2.283 3.977 4.099 5.313.914.672 1.661 1.393 1.661 1.604 0 .21.81 1.248 1.8 2.307l1.8 1.924v99.258c0 55.253.153 99.259.345 99.259.189 0 .273.405.185.9-.354 2.009 4.681 6.704 6.64 6.192.435-.114.845-.068.911.101.065.169.702.22 1.415.113.762-.115 1.19-.367 1.038-.613-.15-.243-.064-.297.207-.13.573.355 2.958-1.279 2.634-1.803-.129-.209-.086-.335.095-.281 1.19.356 5.019-2.219 5.715-3.843.426-.994 1.511-2.353 2.575-3.225 1.686-1.381 2.748-3.021 1.14-1.76-.629.493-.646.48-.171-.127.303-.387.802-.572 1.166-.432.456.175.544.094.309-.286-.188-.303-.171-.433.039-.303.57.352 1.469-.48 3.698-3.425l2.059-2.72V182.48l-1.374-2.14c-.756-1.177-1.898-2.77-2.539-3.54-.641-.77-1.481-1.892-1.867-2.493-.72-1.12-3.359-2.987-3.95-2.795-.181.059-.226-.06-.099-.266.292-.471-2.024-2.453-2.682-2.295-.269.065-.334.036-.145-.065.19-.1-1.328-1.861-3.371-3.913-2.044-2.053-3.868-3.638-4.054-3.523-.187.115-.289.052-.229-.14.113-.358-3.472-4.571-7.167-8.421-1.303-1.359-2.257-2.053-2.562-1.865-.282.175-.381.132-.236-.102.301-.487-1.534-2.167-1.955-1.79-.164.148-.187.072-.051-.167.404-.709-.82-2.07-2.301-2.559-.759-.251-1.487-.792-1.617-1.203-.131-.412-1.039-1.218-2.019-1.793-.98-.574-1.782-1.194-1.782-1.379 0-.184-.675-1.072-1.5-1.974a80.373 80.373 0 01-2.639-3.047c-.626-.775-1.306-1.306-1.51-1.18-.204.126-.322.081-.263-.1.284-.873-3.463-5.116-4.145-4.695-.277.171-.359.115-.204-.137.145-.234-.322-.908-1.038-1.497-.716-.59-3.317-3.052-5.782-5.472-2.834-2.784-4.657-4.291-4.961-4.103-.3.185-.377.129-.205-.15.155-.25-.41-1.116-1.281-1.962-.856-.833-1.684-1.914-1.838-2.404-.331-1.045-2.167-2.598-2.691-2.275-.2.124-.313.076-.253-.106.132-.395-2.149-3.05-4.061-4.727a211.377 211.377 0 01-4.005-3.676c-3.574-3.357-7.731-4.551-9.141-2.626m-162.149 4.449c11.922 3.71 14.05 8.874 14.193 34.451.103 18.43 1.029 19.605 14.556 18.49 5.947-.491 7.319-1.156 8.76-4.252l.949-2.038.004-19.227c.004-21.299.082-22.068 2.518-24.842 3.627-4.131 9.974-4.246 14.082-.256 2.774 2.694 2.708 2.132 2.836 24.125.137 23.51.102 23.299 4.225 25.354 1.955.974 2.474 1.046 7.522 1.044 11.825-.005 12.406-.924 12.446-19.718.035-16.203.305-19.374 1.938-22.779 2.777-5.791 8.03-9.781 13.415-10.188 4.735-.358 4.395-2.23 4.458 24.53l.054 22.505.955 1.926c2.697 5.439 18.63 5.824 21.735.526.785-1.341.822-2.043.869-16.6.055-16.874.157-17.735 2.726-23.087 3.589-7.473 13.792-12.809 17.03-8.907.438.528.555 5.296.619 25.322.069 21.969.151 24.846.742 26.257.478 1.14 6.266 7.203 20.62 21.6 22.612 22.679 25.202 25.542 26.676 29.489 1.502 4.024 1.834 20.907.444 22.626-1.504 1.86-1.348 1.998-27.981-24.753-27.012-27.132-26.839-26.99-34.418-28.364-3.058-.554-161.193-.84-166.035-.3-8.738.975-9.307 1.436-40.672 32.907-20.22 20.288-21.402 21.358-22.786 20.617-1.919-1.027-1.884-16.052.053-22.504 1.399-4.663 2.895-6.367 25.294-28.81 11.805-11.829 21.684-21.999 21.952-22.6.364-.817.5-7.427.54-26.21.063-29.946-.374-28.292 6.834-25.858 10.884 3.675 13.271 9.647 13.425 33.575.124 19.313-.317 18.6 11.488 18.6 13.166 0 12.656 1.24 12.233-29.73-.311-22.782-.344-22.366 1.89-23.266 1.206-.486 1.118-.494 3.811.345m-68.427 3.185c1.968 1.249 2.201 18.258.326 23.702-1.638 4.753-.364 3.389-38.433 41.163-16.878 16.747-19.542 19.541-20.661 21.663l-.916 1.738-.035 98.8c-.027 77.272-.141 98.996-.525 99.7-.659 1.208-1.762 1.134-3.349-.225a39.097 39.097 0 00-2.613-2.027c-1.647-1.142-10.184-10.649-10.999-12.248C3.815 376.134 3.639 367.92 4 255.4l.2-62.4 1.295-3.2c2.68-6.623 3.503-7.562 27.715-31.6 12.409-12.32 23.198-23.118 23.976-23.996.778-.877 3.304-3.392 5.614-5.588 2.31-2.197 5.37-5.252 6.8-6.789 6.99-7.515 12.502-12.647 13.556-12.621.134.003.472.151.751.328m235.093.815c2.243 1.395 71.612 70.918 73.289 73.451 5.184 7.832 4.899 1.651 4.797 104l-.088 88-1.049 2.823c-1.617 4.351-2.112 5.114-6.27 9.66-6.053 6.617-11.381 10.167-12.336 8.217-.189-.385-.388-45.157-.442-99.494l-.099-98.793-.995-2.007c-1.045-2.105-5.995-7.371-16.807-17.878-3.3-3.206-9.902-9.767-14.671-14.579a2270.998 2270.998 0 00-15.674-15.648c-7.089-6.984-10.6-11.42-12.139-15.34-1.093-2.786-1.056-21.101.046-22.319.925-1.022.942-1.023 2.438-.093M92.298 123.28c-.072 2.046-.132.48-.133-3.48 0-3.96.059-5.634.133-3.72.073 1.914.073 5.154 0 7.2M370.7 312.268c-.057 20.643-.104 3.872-.104-37.268s.047-58.029.104-37.532c.057 20.498.057 54.158 0 74.8M305.025 202.5l1.175 1.3-1.3-1.175c-1.212-1.095-1.484-1.425-1.175-1.425.069 0 .654.585 1.3 1.3M98.412 220.045c-2.418.965-4.416 3.364-4.068 4.885.042.181-.112.213-.341.072-.582-.36-3.268 1.369-2.944 1.894.146.236.078.312-.152.17-.458-.283-1.419.649-1.104 1.071.109.145.085.181-.052.08-.325-.237-2.759 1.534-4.605 3.352-.8.787-1.925 1.754-2.499 2.149-.575.395-1.66 1.679-2.411 2.853-.751 1.174-1.754 2.406-2.229 2.739-.635.445-.723.668-.335.844.29.131.158.149-.295.04-1.191-.288-4.612 3.594-3.878 4.402.165.183.085.208-.179.057-.541-.31-1.455 1.079-1.006 1.528.157.157.106.231-.114.163-1.202-.367-5.533 3.022-5.168 4.044.116.323.103.48-.029.348-.301-.301-4.839 4.442-4.703 4.915.055.192-.045.304-.221.249-.177-.055-1.978 1.508-4.002 3.473-2.024 1.965-4.145 3.878-4.713 4.25-.568.373-1.403 1.285-1.855 2.027-1.695 2.78-3.109 5.588-3.109 6.173 0 .333-.315 1.086-.7 1.673-.653.997-.707 3.816-.807 42.378l-.108 41.31 1.243 2.96c1.473 3.51 2.046 3.87 6.048 3.81 2.525-.039 2.959-.163 3.85-1.099.553-.58.875-.83.716-.555-.353.61-.285.613 1.298.061.692-.241 1.156-.606 1.03-.81-.126-.204-.081-.345.1-.314.83.145 1.294-.094 1.511-.776.128-.406 1.176-1.388 2.326-2.181 2.289-1.578 8.485-7.865 9.578-9.718a22.234 22.234 0 011.567-2.247c.485-.596.881-1.623.881-2.282s.124-1.121.275-1.028c.38.235 1.256-1.778.973-2.235-.125-.203-.058-.37.149-.37.448 0 1.425-6.225 1.069-6.802-.136-.219-.058-.398.171-.398.288 0 .344-7.537.179-24.3-.132-13.365-.104-24.17.061-24.011.166.159.793-.111 1.395-.6a18.398 18.398 0 012.316-1.554c.671-.365 1.726-1.445 2.342-2.4 1.297-2.006 4.899-6.383 5.645-6.86.28-.178.387-.521.239-.761-.149-.241-.093-.328.125-.193.519.321 3.839-3.068 3.437-3.509-.17-.187-.096-.218.164-.069.57.327 1.797-1.292 1.446-1.908-.136-.239-.103-.305.073-.146.477.431 6.608-4.781 6.608-5.618 0-.164.543-.619 1.207-1.012.664-.392 1.101-.885.97-1.096-.13-.21-.088-.349.093-.308.182.041.87-.15 1.53-.424.73-.304 1.827-.395 2.8-.234.88.146 1.906.29 2.281.32.374.03.596.139.493.242-.32.32 2.284 1.253 2.729.977.265-.164.3-.064.093.27-.24.388-.143.459.359.267.378-.145.598-.121.49.054-.226.366 1.126 1.098 5.355 2.899 1.65.703 3.494 1.626 4.097 2.051.604.426 1.307.644 1.562.486.271-.167.357-.113.206.131-.153.248.343.531 1.216.695 1.766.331 4.72 1.787 7.493 3.691 1.973 1.356 2.956 2.155 1.903 1.546-.425-.245-.481.668-.297 4.836.124 2.826.36 12.518.523 21.538.276 15.215.354 16.501 1.079 17.8.43.77.74 1.551.688 1.736-.639 2.279 5.581 14.081 7.248 13.752.245-.048.462.182.482.512.02.33.267.551.548.49.281-.06.416.045.298.235-.117.19.526 1.049 1.429 1.91.904.861 1.498 1.312 1.322 1.003-.217-.379-.169-.468.148-.272.257.159.372.445.255.634-.117.19.825 1.168 2.093 2.174 4.329 3.432 6.785 5.683 7.789 7.14.376.544 1.636 1.528 2.801 2.185 1.165.658 3.394 2.255 4.952 3.548a484.038 484.038 0 005.329 4.353c1.372 1.1 3.246 2.605 4.165 3.345.919.739 1.905 1.78 2.19 2.311.307.573.715.855 1 .692.265-.152.348-.129.184.051-.163.18-.085.581.172.891.325.393.463 3.119.453 8.963-.016 8.356-.099 9.045-1.649 13.547-.113.33-.162.78-.109 1 .053.22-.013.29-.147.156-.135-.134-.915.377-1.734 1.136a35.436 35.436 0 01-3.189 2.564c-.935.65-1.7 1.329-1.7 1.508 0 .179-.537 1.002-1.194 1.829-.657.826-1.094 1.665-.97 1.865.123.199.075.329-.106.288-.792-.176-1.821.665-2.54 2.074-.427.837-1.142 1.638-1.589 1.78-.447.142-.692.452-.545.691.163.263.08.317-.212.136-.667-.412-1.732.567-1.441 1.325.132.343.122.506-.022.362-.463-.463-5.308 5.094-5.07 5.816.06.181-.055.228-.256.104-.357-.221-1.154.474-1.221 1.066-.019.165-.13.292-.248.282-.118-.01-.682.35-1.254.8-.572.45-1.254.818-1.516.818-.781 0-2.331 1.89-1.996 2.432.195.315.138.389-.158.206-.254-.157-.462-.089-.462.152 0 .24-.642.816-1.427 1.279-2.532 1.494-5.355 8.502-5.894 14.631-.043.495-.233.9-.421.9-.538 0-.06 12.358.561 14.507.466 1.614.467 2.107.005 3.2-.3.711-.669 3.453-.819 6.093-.151 2.64-.468 5.43-.705 6.2-.841 2.731-.987 9.206-.258 11.4.668 2.009.954 20.323.851 54.4-.053 17.374.006 58.724.086 60.6.042.99-.035 7.785-.171 15.1-.253 13.571.146 17.3 1.852 17.3.146 0 .178.333.072.74-.125.478.396 1.421 1.471 2.663.916 1.058 2.36 3.024 3.209 4.369 1.538 2.436 3.065 3.881 4.622 4.375 1.011.321 5.573 4.979 5.221 5.331-.14.14-.255.015-.255-.278 0-.293-.119-.414-.264-.269-1.314 1.313 1.218 1.869 8.517 1.869h7.329l.655-1.001c.361-.55.562-1.36.447-1.8-.115-.44-.046-.699.153-.576.2.123.363-.214.363-.751 0-.536.259-1.594.575-2.352.402-.96.574-2.944.57-6.558-.003-2.849.116-5.664.264-6.256.169-.671-.036-2.023-.543-3.593-.956-2.958-1.247-9.253-.494-10.66.334-.624.405-2.191.235-5.174-.604-10.574-.812-37.071-.298-37.922.395-.654.484-4.573.4-17.5-.06-9.162.026-16.657.191-16.657.614 0 .346-20.267-.29-21.892-.565-1.444-.682-4.593-.159-4.274.96.585 1.095-15.831.149-18.096-.506-1.212-.6-4.578-.6-21.569v-20.134l1.124-1.917c.619-1.055 1.474-2.787 1.9-3.849.427-1.063 1.096-2.107 1.487-2.32.391-.214.589-.588.438-.831-.161-.26-.09-.329.172-.167.26.161.718-.253 1.1-.992.528-1.02 4.987-5.943 7.463-8.238 4.488-4.161 5.426-5.149 5.225-5.503-.13-.23-.088-.283.094-.117.183.165.65.013 1.039-.339 1.325-1.199 3.06-.112 8.392 5.255 2.731 2.749 5.126 5.49 5.321 6.091.63 1.934 2.423 4.274 3.811 4.97.743.373 2.045 1.518 2.893 2.544l1.541 1.865v4.38c0 2.409.15 4.287.334 4.174.184-.114.196.641.027 1.676-.398 2.443-.457 58.376-.062 58.62.166.102.194 2.498.064 5.324-.334 7.207-.359 35.784-.033 35.583.548-.336.618 2.116.267 9.356-.101 2.09-.283 20.017-.404 39.838-.219 35.771-.137 38.669 1.068 37.924.296-.182.354-.11.161.202-.166.268-.188 1.093-.049 1.833l.252 1.346 8.535.041 8.534.042 2.603-2.54c1.431-1.397 2.739-2.977 2.906-3.513.167-.535.909-1.649 1.65-2.474.741-.826 1.347-1.674 1.347-1.885 0-.211 1.007-1.512 2.238-2.892 3.802-4.261 3.531-2.698 3.797-21.922.162-11.761.393-17.64.748-19.076.413-1.669.418-3.194.027-7.8-.709-8.359-.738-11.041-.149-13.724.74-3.369.704-11.032-.061-12.862-.765-1.83-.797-7.554-.053-9.389.764-1.885.72-50.882-.046-52.222-.656-1.144-.742-36.116-.094-37.974.295-.848.298-1.551.009-2.312-.244-.64-.416-4.871-.416-10.211 0-9.679-.24-12.976-.915-12.559-.229.142-.287.057-.133-.193.151-.245.1-.768-.114-1.162-.214-.394-.82-1.706-1.346-2.916-1.49-3.423-8.585-11.561-9.557-10.96-.269.167-.35.108-.195-.143.33-.533-3.571-3.449-4.142-3.096-.23.142-.368.094-.308-.107.061-.201-.499-.881-1.244-1.511-.745-.63-1.621-1.784-1.947-2.564-.602-1.444-7.635-8.742-9.998-10.375-1.584-1.094-3.476-3.769-3.999-5.652-.468-1.686-1.88-4.081-2.21-3.751-.584.585-.261-19.633.327-20.417.319-.428.581-.599.581-.38 0 .218-.225.652-.5.965-.275.314-.089.226.414-.194.503-.421.82-1.01.705-1.311-.116-.3-.045-.444.157-.319.201.125.473-.109.603-.518.13-.41.643-.931 1.14-1.157 1.33-.606 3.514-2.533 3.286-2.901-.108-.175.117-.564.499-.864.641-.502.651-.482.12.255-.358.498-.16.409.526-.235.606-.569 1.159-1.379 1.229-1.8.07-.421.342-.715.604-.655.566.13 2.938-1.772 2.511-2.013-.162-.091-.054-.105.24-.031.735.186 4.1-2.287 3.792-2.787-.137-.221-.053-.281.188-.132.241.149.853-.163 1.362-.692.508-.529 1.555-1.162 2.326-1.407.908-.289 3.231-2.202 6.6-5.437 2.859-2.745 5.516-5.099 5.904-5.23.388-.131.604-.404.479-.605-.125-.202.038-.265.362-.141 1.496.574 8.38-9.885 7.69-11.682-.116-.304-.038-.553.176-.553.213 0 .387-.438.387-.973 0-.536.567-1.886 1.261-3.002 1.19-1.915 1.276-2.321 1.551-7.326.16-2.915.501-5.929.758-6.699.532-1.595.19-10.913-.445-12.125-.946-1.805-.373-19.536.676-20.911 1.275-1.673 4.436-3.967 6.199-4.5 5.571-1.685 11.341-4.312 10.93-4.977-.141-.228-.059-.29.183-.141.24.149 1.393-.164 2.562-.694 4.621-2.096 5.411-2.356 7.74-2.548l2.416-.2 2.24 2.048c1.233 1.126 2.435 2.048 2.671 2.048.236 0 .625.365.864.811.239.446.633.689.876.538.28-.173.327-.088.129.233-.209.338 1.351 2.184 4.698 5.562 2.756 2.781 5.307 5.648 5.669 6.371.368.735 1.266 1.605 2.036 1.972.758.362 1.483.987 1.611 1.391.128.403.398.632.599.507.202-.125.272.02.156.322-.128.333.732 1.322 2.191 2.521 1.744 1.433 2.519 2.385 2.834 3.484.238.832.601 1.408.807 1.281.23-.142.415 7.866.481 20.788.059 11.56-.039 21.019-.217 21.019s-.212.18-.076.4c.136.22.065.4-.158.4-.699 0-.961 2.747-.44 4.609.274.977.621 1.7.771 1.607.151-.092.216.603.145 1.545-.264 3.509 5.343 14.433 7.81 15.216.406.129 1.68 1.41 2.831 2.847 1.696 2.116 2.26 2.572 2.968 2.398.48-.118.67-.118.421-.001-.504.238 1.052 2.11 4.674 5.62 2.411 2.337 9.463 2.737 11.278.64 2.204-2.548 2.868-4.554 3.199-9.665.179-2.759.424-6.453.546-8.209.226-3.258-.002-4.547-1.502-8.47-.901-2.357-.881-9.001.05-16.254.442-3.449.425-4.121-.145-5.614-.909-2.379-.951-29.89-.048-31.469.737-1.289.756-4.131.037-5.74-.309-.693-.657-2.55-.774-4.127-.299-4.059-.969-5.968-2.598-7.398-.769-.675-2.177-2.286-3.13-3.581-1.434-1.948-3.262-3.454-2.297-1.892.173.279.11.353-.159.187-.244-.151-.35-.518-.236-.816.196-.512-1.569-2.093-2.443-2.189-.22-.024-.4-.179-.401-.344-.001-.844-1.962-2.858-3.606-3.703-1.024-.527-2.19-1.375-2.591-1.886-.515-.654-.798-.777-.962-.419-.128.279-.15.148-.05-.292.229-.997-2.418-4.754-3.066-4.353-.26.161-.336.097-.182-.153.378-.612-7.171-8.247-7.782-7.869-.29.179-.38.131-.224-.121.253-.41-.809-1.104-1.466-.958-.181.041-.23-.087-.109-.283.292-.472-1.14-1.751-1.527-1.364-.165.166-.244.121-.174-.099.148-.466-5.539-6.254-7.835-7.975-1.133-.849-1.494-.982-1.301-.479.169.439.111.599-.156.434-.232-.143-.323-.52-.201-.837.4-1.043-4.41-5.797-7.327-7.243-3.657-1.812-12.04-1.532-12.04.403 0 .189-.181.232-.403.095-.427-.264-6.909 2.157-7.123 2.661-.069.163-.376.2-.682.083-.305-.118-1.239.152-2.074.598-2.244 1.2-7.246 3.466-9.418 4.268-2.932 1.081-5.487 2.468-5.179 2.811.154.17.068.189-.189.041-.258-.147-2.688.844-5.4 2.204-2.713 1.36-5.377 2.44-5.921 2.401-1.068-.076-4.407 1.152-4.41 1.622 0 .159-.242.195-.537.082-.904-.347-10.207 4.555-9.668 5.094.094.093-.199.197-.65.231-1.218.092-2.817 1.261-2.495 1.824.153.265.13.349-.05.185-.448-.405-1.455.486-1.135 1.004.142.229.072.302-.155.161-.863-.533-4.061 2.458-4.532 4.24-.247.931-.908 2.178-1.47 2.773-.597.631-1.04 1.587-1.065 2.299-.024.67-.149 1.219-.278 1.219-.438.002.127 6.596.682 7.95.63 1.539.745 4.851.167 4.851-1.434 0-1.64 14.081-.237 16.223.775 1.183.845 8.167.086 8.652-.545.348-.463 4.859.092 5.044.233.077.311.647.178 1.309-.129.645-.07 1.172.131 1.172s.392.364.426.809c.033.444-.118.698-.336.563-.238-.147-.391.445-.383 1.492.018 2.691-.111 3.497-.521 3.244-.215-.133-.28.138-.151.629.124.475.062.863-.137.863-.2 0-.363.471-.363 1.047 0 1.026-2.109 3.911-2.542 3.478-.119-.12-.811.028-1.538.329-1.042.431-6.11.588-24.042.746l-22.722.2-1.931-1.814-1.932-1.813-.493-4.187c-.871-7.383-.935-11.467-.207-13.284.854-2.136.807-24.784-.059-28.222-.294-1.165-.534-3.618-.534-5.45 0-3.488-.322-5.925-.749-5.662-.138.085-.279-.317-.314-.894-.035-.577-.25-1.112-.478-1.188-.228-.076-.321-.38-.208-.676.372-.969-.923-2.761-4.2-5.81-6.168-5.738-6.458-5.953-8.414-6.227-1.01-.141-2.917-.787-4.237-1.435-1.32-.648-3.21-1.289-4.2-1.424-.99-.136-2.587-.664-3.548-1.174-.962-.51-1.934-.813-2.162-.672-.239.148-.293.061-.128-.206.157-.254.094-.462-.139-.462-.234 0-2.27-.879-4.526-1.954-6.224-2.964-9.087-4.1-9.577-3.797-.261.162-.331.093-.17-.168.171-.277-.367-.614-1.438-.903a31.942 31.942 0 01-3.177-1.065c-.806-.332-1.646-.492-1.866-.356-.22.137-.461.112-.535-.055-.129-.29-7.714-4.102-8.163-4.102-.12 0-.104.225.035.5s.015.228-.276-.106c-.963-1.1-2.8-2.069-3.552-1.872-.407.106-.793.075-.859-.07-.543-1.201-8.48-2.096-10.707-1.207m255.885 9.455c-.077 1.485-.14.27-.14-2.7s.063-4.185.14-2.7a63.146 63.146 0 010 5.4m-246.401-1.744c3.522 1.362 14.383 6.041 24.597 10.595 3.02 1.347 5.601 2.449 5.735 2.449.432 0 9.074 3.497 12.572 5.088 15.232 6.925 14.811 5.728 14.71 41.782l-.069 24.598 1.098 2.243c1.656 3.384 4.275 6.075 6.978 7.167l2.283.922h23.8c28.617 0 29.293-.094 32.56-4.546 3.451-4.701 3.214-2.453 3.445-32.654.113-14.74.329-27.07.48-27.4.152-.33.477-1.386.723-2.347.869-3.39 4.485-6.354 10.578-8.672 1.328-.505 4.304-1.755 6.614-2.778 2.31-1.023 5.1-2.188 6.2-2.589 2.475-.901 6.321-2.534 11.8-5.011 2.31-1.044 5.769-2.498 7.686-3.232 1.917-.734 3.897-1.601 4.4-1.927 1.705-1.105 12.278-5.044 13.539-5.044 2.5 0 4.235 1.546 23.948 21.348 23.771 23.878 23.176 23.203 25.125 28.532.926 2.533 1.075 75.977.16 78.62-1.004 2.896-2.601 2.017-10.462-5.753-8.82-8.719-8.499-7.351-8.423-35.947.061-22.634-.198-28.651-1.353-31.414-.714-1.71-29.176-30.372-30.746-30.962-3.348-1.26-4.964-.768-22.274 6.778-3.63 1.582-8.028 3.487-9.773 4.232-8.098 3.46-7.615 1.852-7.679 25.566-.059 21.476-.259 23.982-2.377 29.681-2.975 8.005-7.027 13.037-15.571 19.335-2.2 1.622-5.8 4.495-8 6.386-2.2 1.89-5.17 4.318-6.6 5.396-10.675 8.043-13.333 12.693-13.376 23.402-.058 14.078 5.076 22.197 26.43 41.8 7.268 6.671 10.023 10.625 11.126 15.965.699 3.384.914 171.753.232 181.697-.4 5.828-2.277 9.566-7.55 15.035-5.571 5.779-9.581 8.434-11.083 7.338-1.158-.844-1.166-1.521-1.297-102.772l-.119-91.537-.987-3.126c-1.476-4.671-3.209-6.87-13.941-17.68-10.891-10.97-11.575-11.451-14.386-10.116-3.187 1.512-21.907 21.211-23.96 25.214-1.984 3.867-1.927 1.751-1.807 66.696.139 75.391-.054 125.708-.495 129.028-.806 6.06-2.717 5.628-10.661-2.416-4.729-4.788-5.451-5.71-7-8.932L153 614.2l-.238-9.8c-.609-25.062-.058-174.512.651-176.6 1.57-4.624 3.304-6.84 12.207-15.6 22.522-22.162 23.978-24.215 24.816-35 1.145-14.719-.854-19.301-12.475-28.588-3.829-3.059-8.851-7.204-11.161-9.21-2.31-2.007-5.55-4.656-7.2-5.888-13.002-9.708-14.557-14.732-14.584-47.142L145 267.745l-1.098-1.662c-1.277-1.931-1.82-2.243-8.16-4.692-2.608-1.007-7.802-3.241-11.542-4.963-13.599-6.263-16.611-6.999-19.831-4.846-3.167 2.117-28.866 28.362-29.981 30.618l-.988 2-.201 26.4c-.245 32.293.612 28.684-9.199 38.728-8.607 8.811-9.625 8.919-10.137 1.072-.525-8.024-.402-71.282.142-73.4 1.089-4.238 5.739-10.581 10.795-14.725 1.21-.992 9.22-8.952 17.8-17.69 20.132-20.502 18.54-19.443 25.296-16.829m6.904 86.937c-.33.109-1.95 1.517-3.6 3.127-1.65 1.611-3.81 3.358-4.8 3.882-.99.525-1.751 1.18-1.69 1.456.06.276-.059.397-.266.269-.408-.252-2.177 2.353-2.177 3.206 0 .287-.105.49-.234.45-.95-.296-5.327 3.739-6.853 6.317-1.085 1.833-1.594 2.306-3.685 3.42-1.582.842-4.038 3.824-3.658 4.44.122.198-.016.31-.307.25-.292-.061-.481.128-.42.42.06.291-.051.43-.247.309-.472-.292-1.751 1.14-1.364 1.527.166.165.031.241-.299.167-.332-.073-.551.103-.49.397.06.291-.06.425-.266.297-.492-.304-2.921 2.125-2.617 2.617.128.206.084.333-.097.281-.182-.052-1.77 1.408-3.53 3.244-2.212 2.308-3.844 3.627-5.286 4.273-1.964.881-4.257 3.748-3.558 4.448.117.116-.471.684-1.307 1.261-3.686 2.544-4.814 3.523-5.473 4.745-.386.717-.847 1.304-1.025 1.304-.652 0-3.185 2.533-3.005 3.004.103.268-.515.881-1.372 1.362-1.646.926-2.881 2.338-2.534 2.899.114.184-.003.335-.259.335-.257 0-.36.278-.228.621.131.341.087.528-.096.414-.951-.588-3.704 4.322-2.917 5.202.143.16.068.182-.167.048-.466-.264-2.573 3.564-2.573 4.675 0 .374-.308 1.256-.684 1.96-.509.952-.752 2.767-.949 7.08-.145 3.19-.504 6.565-.798 7.5-.451 1.437-.446 1.963.035 3.4.46 1.374.553 4.731.486 17.5-.122 23.479-.117 25.125.122 38.7.122 6.875.377 12.5.567 12.5.19 0 .259.333.152.74-.106.408.063.997.376 1.31.386.386.599 1.658.659 3.942.061 2.324.329 3.9.862 5.069.424.932.772 1.791.772 1.909 0 1.061 5.327 7.97 5.789 7.508.139-.14.148.02.02.353-.292.763.91 1.904 3.909 3.706 1.275.766 2.846 2.122 3.492 3.013.646.892 1.702 1.894 2.347 2.228.645.333 1.507 1.031 1.915 1.55 2.952 3.753 9.461 2.104 11.269-2.854l.884-2.425.029-51.422c.017-30.18.177-51.331.388-51.201.197.122.358.063.358-.13s.635-1.058 1.412-1.923c.776-.865 2.441-2.907 3.7-4.538 2.58-3.344 7.244-8.209 9.164-9.558.702-.494 1.389-1.253 1.527-1.686.137-.434 1.013-1.236 1.946-1.782 1.007-.59 1.968-1.565 2.367-2.401.369-.775.899-1.411 1.178-1.414.35-.004.322-.135-.094-.426-.467-.327-.397-.363.317-.162.972.274 3.894-2.341 3.439-3.078-.119-.191-.067-.322.114-.291.852.148 1.351-.08 1.092-.499-.184-.297-.109-.353.209-.156.692.428 2.717-1.613 3.616-3.647.406-.916 1.12-1.871 1.587-2.121.466-.25.726-.653.575-.896-.158-.256-.091-.329.161-.173.242.149 1.203-.636 2.162-1.765.951-1.118 2.244-2.307 2.874-2.641 1.768-.937 4.675-3.778 4.385-4.285-.143-.25-.132-.34.025-.201.345.308 3.444-2.409 3.444-3.02 0-.24.63-1.322 1.4-2.405.77-1.083 1.404-2.252 1.409-2.598.005-.347.38-1.44.833-2.43.454-.99.879-2.484.945-3.32.066-.837.26-1.647.431-1.8.171-.154.165-.01-.013.32-.255.475-.215.5.193.124.833-.771.96-4.176.247-6.627-.355-1.221-.646-3.002-.647-3.959-.004-3.285-3.073-8.957-4.402-8.135-.172.106-.419-.086-.55-.426-.135-.354-.068-.514.159-.374 1.345.832-.616-2.414-2.096-3.468-1.276-.908-6.877-1.45-8.709-.842m164.855.255c-2.695.975-6.66 5.444-5.738 6.467.156.172.083.199-.161.06-.519-.296-1.865 2.825-1.484 3.442.144.232.054.284-.21.121-.283-.174-.469-.004-.48.438-.009.398-.294 1.444-.633 2.324-1.979 5.142-1.112 14.002 1.323 13.523.216-.043.432.947.48 2.2.095 2.488 2.323 7.574 3.227 7.367.264-.06.383.048.263.242-.238.385 1.314 2.005 1.958 2.044.22.013.4.189.4.391 0 .471.562 1.033 1.033 1.033.202 0 .371.18.376.4.014.623 6.09 6.586 6.472 6.35.186-.115.289.029.229.32-.061.292.115.485.39.43.275-.055.461.035.414.2-.162.565 2.073 3.665 2.98 4.134.498.257 1.85 1.446 3.004 2.642 1.251 1.297 2.285 2.058 2.562 1.887.274-.169.356-.112.201.139-.346.559 2.094 2.601 2.79 2.334.297-.114.498-.079.447.078-.165.512 1.164 2.089 1.502 1.783.181-.163.203-.079.05.188-.156.271.088.802.551 1.2a25.103 25.103 0 011.715 1.676c4.332 4.707 5.64 5.995 6.014 5.923.238-.046.448.096.466.316.112 1.381 5.362 7.614 7.554 8.969 2.76 1.706 5.221 8.718 3.621 10.317-.411.411-.545.991-.388 1.672.182.783.141.893-.165.442-.284-.42-.406 1.084-.406 5 0 4.026.118 5.431.42 5 .335-.479.373-.429.185.244-.273.978.114 2.246.595 1.948.181-.111.387 1.328.458 3.199.085 2.209-.024 3.461-.308 3.569-1.34.511-1.476 3.491-.955 20.976.281 9.425.394 19.551.251 22.5l-.506 10.364c-.245 4.998.196 8.4 1.087 8.4.225 0 .297.18.161.4-.136.22-.102.4.076.4.178-.001.272 3.476.208 7.725-.137 9.117-.132 9.13 4.204 10.866 3.186 1.275 8.221.761 7.109-.727-.108-.145-.092-.189.036-.097.656.468 5.767-2.856 5.767-3.751 0-.484 4.243-4.501 5.403-5.114.518-.274 1.054-.852 1.191-1.283.137-.431.966-1.646 1.842-2.701.948-1.141 1.522-2.202 1.416-2.619-.097-.385-.042-.616.124-.514 1.06.655 4.424-5.43 4.424-8.002 0-.913.277-2.214.614-2.892 1.124-2.253 1.058-70.096-.071-72.917-.414-1.035-.541-2.09-.369-3.075.145-.824.315-1.995.38-2.601.064-.607.236-1.222.382-1.367.368-.368.333-7.021-.036-6.793-.165.102-.336-.202-.379-.676-.217-2.366-.93-6.336-1.25-6.959-.198-.386-.469-1.665-.601-2.84-.385-3.413-6.775-11.769-8.497-11.108-.315.121-.573.046-.573-.168 0-.213-.261-.387-.58-.387-.319 0-.74-.285-.935-.633-.727-1.3-7.381-8.108-7.824-8.005-.254.059-.325.031-.159-.062.166-.092-.184-.682-.777-1.31-.593-.629-1.228-1.05-1.411-.937-.184.114-.284.046-.224-.149.392-1.269-8.288-8.923-9.364-8.259-.247.153-.368.116-.268-.083.2-.401-1.887-2.561-2.238-2.316-.121.085-.137.041-.036-.097.245-.333-2.118-3.749-2.594-3.749-.204 0-.94-.625-1.635-1.39-.696-.764-1.425-1.291-1.62-1.17-.195.121-.305-.019-.245-.31.061-.292-.128-.481-.42-.42-.291.06-.416-.073-.278-.297.268-.434-1.492-2.413-2.147-2.413-.215 0-.506-.363-.647-.806-.141-.443-.45-.685-.689-.538-.254.157-.318.082-.154-.182.704-1.141-3.791-6.62-6.655-8.11-.825-.429-1.5-.967-1.5-1.196 0-.228-.208-.287-.462-.13-.283.175-.353.11-.181-.168.437-.708-.453-1.998-1.869-2.707-.708-.354-3.024-2.359-5.145-4.454-2.667-2.633-4.025-3.712-4.4-3.495-.299.173-.405.162-.236-.023.388-.427-2.044-1.477-2.61-1.127-.231.143-.305.072-.163-.157.573-.928-3.411-1.18-5.679-.359M119.927 322.6c2.794 2.351 4.469 10.388 3.302 15.844-1.313 6.136-1.32 6.145-24.624 29.356-22.623 22.533-22.858 22.806-24.469 28.329l-.954 3.271.035 47.4c.035 47.403-.028 50.379-1.079 51.251-1.932 1.604-12.79-8.675-15.9-15.052-2.704-5.546-2.666-4.771-2.541-51.463l.111-41.736 1.085-3.216c1.536-4.549 2.434-5.528 33.889-36.933 30.358-30.308 28.84-28.99 31.145-27.051m165.073.149c1.285.799 7.114 6.498 13.581 13.277 8.825 9.253 14.625 15.074 24.484 24.574 19.005 18.312 22.207 22.012 23.543 27.2 1.133 4.401.969 88.516-.179 92.208-2.396 7.695-15.634 20.678-18.08 17.731-.456-.55-.583-9.094-.749-50.7L327.4 397l-.891-2.337c-1.513-3.968-3.979-6.796-18.364-21.063-7.652-7.59-14.731-14.613-15.729-15.607-6.126-6.095-11.93-12.86-13.394-15.612l-1.578-2.966-.022-5.007c-.042-9.453 3.173-14.398 7.578-11.659m-135.84 26.92c-3.091 2.23-6.742 5.636-6.485 6.052.137.222.052.281-.188.133-.537-.332-7.068 6.002-7.452 7.227-.153.485-1.213 1.555-2.356 2.378-2.912 2.096-10.701 9.782-10.402 10.265.135.22.067.289-.152.153-.519-.321-3.034 2.271-2.632 2.713.169.186.106.223-.141.083-.246-.141-1.056.33-1.8 1.046-.743.716-1.941 1.718-2.661 2.225-1.385.977-3.051 3.741-2.574 4.271.156.172.065.188-.202.035-.301-.173-.893.338-1.559 1.345-.591.894-1.949 2.266-3.018 3.05-2.292 1.683-3.167 2.813-2.84 3.667.143.372.072.516-.179.361-.426-.263-4.056 3.309-4.814 4.738-.996 1.875-2.427 6.947-2.469 8.752-.026 1.08-.315 2.751-.642 3.714-.814 2.398-.375 8.523.611 8.523.162 0 .295.447.295.993 0 .548-.176.884-.393.75-.239-.148-.287.09-.123.607.16.504.096.85-.157.85-.246 0-.427.849-.427 2s.181 2 .427 2c.253 0 .317.346.157.85-.198.625-.136.768.235.538.283-.174.404-.149.277.057-.126.203-.282 2.481-.348 5.062-.066 2.581-.261 4.693-.434 4.693s-.314 2.52-.314 5.6c0 3.176.161 5.6.371 5.6.223 0 .364 6.568.353 16.394-.01 9.017-.157 16.309-.326 16.205-.952-.589-1.193 11.749-.248 12.694.396.396.567 1.839.608 5.129.035 2.866-.079 4.371-.307 4.025-.527-.801-.938.713-.801 2.949.06.978-.016 1.904-.17 2.058-.462.462-.329 6.146.144 6.146.233 0 .311.182.174.404-.35.565.18 2.057.631 1.778.687-.424.458 8.988-.235 9.682-.748.748-.691 9.978.064 10.453.537.338.696 10.883.164 10.883-1.334 0-1.799 15.029-.563 18.2.342.88.767 2.68.944 4 .317 2.376 1.129 4.591 1.684 4.597.159.002.204.228.101.503-.204.543 2.825 4.3 3.467 4.3.216 0 .281-.18.145-.4-.402-.651.057-.456.651.277.373.46.389.58.049.376-1.332-.8-.107.68 3.985 4.815 3.891 3.932 5.766 5.508 4.915 4.132-.402-.651.057-.456.651.277.373.46.389.58.049.376-1.309-.786-.271.678 1.6 2.257 5.299 4.473 8.262 5.044 11.368 2.19 3.229-2.967 2.956 5.214 2.94-88.245-.014-74.006.056-84.06.588-85.126.331-.665.723-2.083.869-3.151.228-1.665.573-2.241 2.429-4.052 1.189-1.161 2.046-2.299 1.904-2.529-.141-.229-.019-.367.272-.307.292.061.481-.128.42-.42-.06-.291.065-.421.279-.289.215.132 1.125-.754 2.023-1.97.898-1.216 1.769-2.211 1.934-2.211.534 0 1.73-2.386 1.435-2.863-.159-.257-.11-.353.111-.216.217.134 1.19-.574 2.162-1.574.971-1 2.576-2.374 3.566-3.052 2.69-1.843 4.617-3.6 4.467-4.074-.074-.232-.004-.291.155-.133.739.74 5.14-4.525 5.172-6.188.003-.165.186-.313.406-.329.652-.046 1.799-1.248 1.561-1.634-.121-.196.018-.307.309-.247.292.061.481-.128.42-.42-.06-.291.048-.432.242-.312.76.47 4.126-5.033 3.476-5.683-.11-.111-.007-.435.23-.721.238-.286.346-1.156.241-1.933-.104-.777-.045-1.323.133-1.213 1.447.894 1.925-13.26.547-16.208-.463-.99-.967-2.155-1.122-2.589-.238-.669-.343-.7-.696-.2-.337.477-.371.448-.176-.15.148-.456-.106-1.166-.662-1.85a17.978 17.978 0 01-1.543-2.289c-.71-1.307-4.934-3.909-5.639-3.473-.269.166-.332.093-.159-.187.693-1.122-3.198-.494-5.002.807m97.64-.045c0 .233-.182.311-.404.174-.492-.304-2.074.152-1.841.531.092.149-.481.319-1.273.377-1.993.147-3.126 1-3.692 2.78-.265.833-1.02 2.369-1.678 3.415-.658 1.046-1.093 2.171-.967 2.5.126.329.043.599-.185.599-.278 0-.367 2.995-.27 9.1l.144 9.1 2.004 3.6c1.297 2.332 2.207 3.553 2.583 3.467.318-.074.452-.006.296.149-.411.411 1.694 3.024 2.189 2.718.23-.142.312-.086.183.123-.186.3 4.791 5.416 8.111 8.337 1.658 1.459 7.516 8.124 8.326 9.473.524.874 1.608 1.891 2.5 2.346.866.442 1.574 1.034 1.574 1.317 0 .96 2.392 4.322 2.866 4.029.272-.168.348-.106.189.152-.324.525 1.311 1.757 1.872 1.411.218-.135.285-.065.149.156-.137.22.095.769.514 1.219.419.45.67.909.558 1.021-.112.112-.014.537.218.943.232.406.578 1.369.77 2.139.192.77.559 1.354.816 1.297.352-.078.46 5.221.438 21.5-.018 13.366-.175 21.603-.41 21.603-.209 0-.38.63-.38 1.4 0 .77.18 1.4.4 1.4.22 0 .4.371.4.824 0 .453-.161.724-.357.602-.424-.262-.972 1.641-.632 2.192.13.21.046.382-.187.382-.574 0-.504 27.662.109 43.3.257 6.545.332 11.9.167 11.9-.361 0-.395 11.003-.039 12.334.188.703.336.802.598.4.199-.306.333 7.924.313 19.266-.018 10.89-.02 22.634-.003 26.099l.031 6.299 1.47 1.627c3.43 3.797 9.597 3.017 14.441-1.827.549-.549 1.164-.998 1.367-.998.203 0 .241-.208.084-.462-.16-.259-.111-.354.111-.216.998.617 6.48-5.227 5.854-6.241-.143-.23-.052-.282.211-.119.254.157.462.101.462-.124 0-.226.536-1.021 1.191-1.767s1.06-1.487.9-1.647c-.16-.16-.088-.231.161-.157 1.673.493 5.33-6.078 4.305-7.736-.165-.268-.103-.345.152-.187.871.538.926-5.27.81-85.195l-.119-81.252-1.5-2.178c-.825-1.197-1.5-2.367-1.5-2.598 0-.658-4.509-5.537-4.979-5.388-.232.074-.297.01-.146-.141.312-.312-3.068-5.093-4.638-6.562-.57-.533-1.037-1.219-1.037-1.523 0-.317-.198-.432-.462-.269-.294.182-.353.109-.161-.201.344-.557-.833-2.037-1.62-2.037-.285 0-1.077-.811-1.759-1.803-1.065-1.547-3.442-3.29-4.531-3.321-.184-.005-.454-.143-.6-.307-.147-.163.003-.143.333.046s-.804-1.033-2.52-2.715-3.432-3.158-3.813-3.279c-.382-.121-1.037-.805-1.456-1.52-.817-1.395-11.328-12.101-11.88-12.101-.182 0-.342-.18-.355-.4-.039-.644-1.659-2.196-2.044-1.958-.194.12-.302.065-.242-.122.258-.797-4.787-5.249-7.322-6.461-2.598-1.243-5.168-1.659-5.168-.835m-91.614 8.676c2.232 2.245 4.017 7.607 4.012 12.055-.001 1.424-.509 2.884-2.223 6.393l-2.221 4.547-9.877 9.881c-13.759 13.763-18.593 18.936-19.841 21.228-2.301 4.229-2.206.37-2.176 87.996.032 95.529.123 85.685-.802 86.828-2.379 2.938-16.759-12.635-18.865-20.428-.805-2.982-.95-149.392-.152-153.969 1.676-9.614 1.754-9.715 26.058-33.831 24.184-23.998 23.415-23.387 26.087-20.7m95.614-.099c.99.767 7.205 6.84 13.811 13.497 6.606 6.656 13.272 13.272 14.814 14.702 10.812 10.031 16.873 17.824 18.196 23.394l.841 3.539-.158 75.033c-.193 91.694.76 82.337-9.396 92.294-8.072 7.913-9.928 8.508-10.88 3.49-.242-1.28-.379-32.824-.365-84.397.024-89.757.169-84.016-2.214-87.553-3.084-4.576-24.43-27.127-27.718-29.282-6.385-4.185-7.444-18.802-1.8-24.844 1.531-1.64 2.624-1.611 4.869.127m119.899 32.674c-.066 3.589-.12.765-.121-6.275 0-7.04.055-9.976.121-6.525a407.56 407.56 0 010 12.8m-50.003 22.21c-.08 1.273-.145.335-.146-2.085-.001-2.42.064-3.462.144-2.315.081 1.147.082 3.127.002 4.4M178.7 471.272c-.063 5.57-.114 1.128-.114-9.872-.001-11 .051-15.558.114-10.128.062 5.43.063 14.43 0 20M354.291 445.9c-.086.825-.157.15-.157-1.5s.071-2.325.157-1.5c.087.825.087 2.175 0 3M178.699 585.7c-.064 4.235-.117.77-.117-7.7s.053-11.935.117-7.7c.065 4.235.065 11.165 0 15.4m-71.499-1.5c1.195 1.21 2.083 2.2 1.973 2.2-.11 0-1.178-.99-2.373-2.2-1.195-1.21-2.083-2.2-1.973-2.2.11 0 1.178.99 2.373 2.2m71.493 26.7c-.084.935-.153.17-.153-1.7 0-1.87.069-2.635.153-1.7.084.935.084 2.465 0 3.4" fill="#e0e0e0"/>
    <path d="M195.2 3.976c-4.483.649-4.399.23-4.421 22.273-.026 26.381-.299 31.04-2.02 34.438-2.357 4.653-5.625 6.928-11.054 7.698-5.54.786-67.886.59-69.252-.218-2.039-1.204-2.125-1.784-2.311-15.567-.248-18.307-.73-20.029-7.054-25.18-6.2-5.05-11.251-5.271-12.082-.529-.635 3.62-.578 58.802.061 60.038 1.291 2.498-1.128 2.385 50.533 2.36 49.933-.025 84.045-.008 135.715.065 41.437.06 40.291.158 40.866-3.518.416-2.659.636-56.469.241-58.836-1.526-9.136-15.427-1.654-19.321 10.4-.213.66-.503 7.471-.644 15.135L294.2 66.47l-1.087.934c-1.646 1.416-2.648 1.451-38.113 1.318l-32.8-.122-2.313-.934c-8.995-3.63-9.485-5.534-9.492-36.833-.006-26.062.038-25.389-1.727-26.301-1.338-.692-10.048-1.052-13.468-.556M80.551 27.6c0 2.53.065 3.565.145 2.3a44.671 44.671 0 000-4.6c-.08-1.265-.145-.23-.145 2.3m102.758 20c0 .99.078 1.395.173.9a5.661 5.661 0 000-1.8c-.095-.495-.173-.09-.173.9M120.5 95.476c.385.1 1.015.1 1.4 0 .385-.101.07-.183-.7-.183s-1.085.082-.7.183m23.425.023c3.368.067 8.768.067 12 0 3.231-.067.475-.122-6.125-.122s-9.244.055-5.875.122m55.147.001c5.32.063 14.14.063 19.6 0 5.461-.063 1.108-.115-9.672-.115-10.78 0-15.247.052-9.928.115m86.628-.013a8.899 8.899 0 002.2 0c.605-.092.11-.167-1.1-.167-1.21 0-1.705.075-1.1.167m7.6 4.804c.825.087 2.175.087 3 0 .825-.086.15-.157-1.5-.157s-2.325.071-1.5.157M140.137 107.8c.002 1.76.072 2.43.156 1.489.085-.94.084-2.38-.002-3.2-.086-.819-.155-.049-.154 1.711m8.386-1.796c-2.234.9-2.201.484-1.89 23.266.423 30.97.933 29.73-12.233 29.73-11.805 0-11.364.713-11.488-18.6-.154-23.928-2.541-29.9-13.425-33.575-7.208-2.434-6.771-4.088-6.834 25.858-.04 18.783-.176 25.393-.54 26.21-.268.601-10.147 10.771-21.952 22.6-22.399 22.443-23.895 24.147-25.294 28.81-1.937 6.452-1.972 21.477-.053 22.504 1.384.741 2.566-.329 22.786-20.617 31.365-31.471 31.934-31.932 40.672-32.907 4.842-.54 162.977-.254 166.035.3 7.579 1.374 7.406 1.232 34.418 28.364 26.633 26.751 26.477 26.613 27.981 24.753 1.39-1.719 1.058-18.602-.444-22.626-1.474-3.947-4.064-6.81-26.676-29.489-14.354-14.397-20.142-20.46-20.62-21.6-.591-1.411-.673-4.288-.742-26.257-.064-20.026-.181-24.794-.619-25.322-3.238-3.902-13.441 1.434-17.03 8.907-2.569 5.352-2.671 6.213-2.726 23.087-.047 14.557-.084 15.259-.869 16.6-3.105 5.298-19.038 4.913-21.735-.526l-.955-1.926-.054-22.505c-.063-26.76.277-24.888-4.458-24.53-5.385.407-10.638 4.397-13.415 10.188-1.633 3.405-1.903 6.576-1.938 22.779-.04 18.794-.621 19.713-12.446 19.718-5.048.002-5.567-.07-7.522-1.044-4.123-2.055-4.088-1.844-4.225-25.354-.128-21.993-.062-21.431-2.836-24.125-4.108-3.99-10.455-3.875-14.082.256-2.436 2.774-2.514 3.543-2.518 24.842L190.792 153l-.949 2.038c-1.441 3.096-2.813 3.761-8.76 4.252-13.527 1.115-14.453-.06-14.556-18.49-.143-25.577-2.271-30.741-14.193-34.451-2.693-.839-2.605-.831-3.811-.345m-67.099 4.206c-1.489 1.01-6.938 6.363-11.824 11.617-1.43 1.537-4.49 4.592-6.8 6.789-2.31 2.196-4.836 4.711-5.614 5.588-.778.878-11.567 11.676-23.976 23.996-24.212 24.038-25.035 24.977-27.715 31.6L4.2 193 4 255.4c-.361 112.52-.185 120.734 2.702 126.4.815 1.599 9.352 11.106 10.999 12.248.714.495 1.89 1.407 2.613 2.027 1.587 1.359 2.69 1.433 3.349.225.384-.704.498-22.428.525-99.7l.035-98.8.916-1.738c1.119-2.122 3.783-4.916 20.661-21.663 38.069-37.774 36.795-36.41 38.433-41.163 1.875-5.444 1.642-22.453-.326-23.702-.734-.466-.845-.436-2.483.676m235.138.232c-1.102 1.218-1.139 19.533-.046 22.319 1.539 3.92 5.05 8.356 12.139 15.34a2270.998 2270.998 0 0115.674 15.648c4.769 4.812 11.371 11.373 14.671 14.579 10.812 10.507 15.762 15.773 16.807 17.878l.995 2.007.099 98.793c.054 54.337.253 99.109.442 99.494.955 1.95 6.283-1.6 12.336-8.217 4.158-4.546 4.653-5.309 6.27-9.66l1.049-2.823.088-88c.102-102.349.387-96.168-4.797-104-1.677-2.533-71.046-72.056-73.289-73.451-1.496-.93-1.513-.929-2.438.093M92.165 119.8c.001 3.96.061 5.526.133 3.48.073-2.046.073-5.286 0-7.2-.074-1.914-.133-.24-.133 3.72m48.018 13.4c0 9.35.053 13.175.117 8.5.064-4.675.064-12.325 0-17-.064-4.675-.117-.85-.117 8.5m132.263-12.724c-.025 1.032.096 1.965.27 2.072.174.108.254-.466.177-1.276-.234-2.474-.398-2.765-.447-.796m-89.132 1.724c.003 1.1.081 1.503.173.895.092-.609.09-1.509-.005-2-.095-.492-.171.005-.168 1.105m89.243 11.4c0 2.97.063 4.185.14 2.7a63.146 63.146 0 000-5.4c-.077-1.485-.14-.27-.14 2.7m-175.664-1.2c0 .77.082 1.085.183.7.1-.385.1-1.015 0-1.4-.101-.385-.183-.07-.183.7m.086 7.312c-.109.281-.147 4.016-.087 8.3l.11 7.788.199-8.3c.195-8.136.175-8.825-.222-7.788m86.341 9.088c0 1.21.075 1.705.167 1.1a8.899 8.899 0 000-2.2c-.092-.605-.167-.11-.167 1.1m82.38 4.287a8.899 8.899 0 002.2 0c.605-.092.11-.167-1.1-.167-1.21 0-1.705.075-1.1.167M370.596 275c0 41.14.047 57.911.104 37.268.057-20.642.057-54.302 0-74.8-.057-20.497-.104-3.608-.104 37.532M303.6 201.325c0 .069.585.654 1.3 1.3l1.3 1.175-1.175-1.3c-1.095-1.212-1.425-1.484-1.425-1.175m50.557 25.475c0 2.97.063 4.185.14 2.7a63.146 63.146 0 000-5.4c-.077-1.485-.14-.27-.14 2.7M30.937 225c.002 1.76.072 2.43.156 1.489.085-.94.084-2.38-.002-3.2-.086-.819-.155-.049-.154 1.711m68.823 2.549c-.858.632-8.58 8.298-17.16 17.036-8.58 8.738-16.59 16.698-17.8 17.69-5.056 4.144-9.706 10.487-10.795 14.725-.544 2.118-.667 65.376-.142 73.4.512 7.847 1.53 7.739 10.137-1.072 9.811-10.044 8.954-6.435 9.199-38.728l.201-26.4.988-2c1.115-2.256 26.814-28.501 29.981-30.618 3.22-2.153 6.232-1.417 19.831 4.846 3.74 1.722 8.934 3.956 11.542 4.963 6.34 2.449 6.883 2.761 8.16 4.692l1.098 1.662.016 18.627c.027 32.41 1.582 37.434 14.584 47.142 1.65 1.232 4.89 3.881 7.2 5.888 2.31 2.006 7.332 6.151 11.161 9.21 11.621 9.287 13.62 13.869 12.475 28.588-.838 10.785-2.294 12.838-24.816 35-8.903 8.76-10.637 10.976-12.207 15.6-.709 2.088-1.26 151.538-.651 176.6l.238 9.8 1.726 3.594c1.549 3.222 2.271 4.144 7 8.932 7.944 8.044 9.855 8.476 10.661 2.416.441-3.32.634-53.637.495-129.028-.12-64.945-.177-62.829 1.807-66.696 2.053-4.003 20.773-23.702 23.96-25.214 2.811-1.335 3.495-.854 14.386 10.116 10.732 10.81 12.465 13.009 13.941 17.68l.987 3.126.119 91.537c.131 101.251.139 101.928 1.297 102.772 1.502 1.096 5.512-1.559 11.083-7.338 5.273-5.469 7.15-9.207 7.55-15.035.682-9.944.467-178.313-.232-181.697-1.103-5.34-3.858-9.294-11.126-15.965-21.354-19.603-26.488-27.722-26.43-41.8.043-10.709 2.701-15.359 13.376-23.402 1.43-1.078 4.4-3.506 6.6-5.396 2.2-1.891 5.8-4.764 8-6.386 8.544-6.298 12.596-11.33 15.571-19.335 2.118-5.699 2.318-8.205 2.377-29.681.064-23.714-.419-22.106 7.679-25.566 1.745-.745 6.143-2.65 9.773-4.232 17.31-7.546 18.926-8.038 22.274-6.778 1.57.59 30.032 29.252 30.746 30.962 1.155 2.763 1.414 8.78 1.353 31.414-.076 28.596-.397 27.228 8.423 35.947 7.861 7.77 9.458 8.649 10.462 5.753.915-2.643.766-76.087-.16-78.62-1.949-5.329-1.354-4.654-25.125-28.532-19.713-19.802-21.448-21.348-23.948-21.348-1.261 0-11.834 3.939-13.539 5.044-.503.326-2.483 1.193-4.4 1.927-1.917.734-5.376 2.188-7.686 3.232-5.479 2.477-9.325 4.11-11.8 5.011-1.1.401-3.89 1.566-6.2 2.589s-5.286 2.273-6.614 2.778c-6.093 2.318-9.709 5.282-10.578 8.672-.246.961-.571 2.017-.723 2.347-.151.33-.367 12.66-.48 27.4-.231 30.201.006 27.953-3.445 32.654-3.267 4.452-3.943 4.546-32.56 4.546h-23.8l-2.283-.922c-2.703-1.092-5.322-3.783-6.978-7.167l-1.098-2.243.069-24.598c.101-36.054.522-34.857-14.71-41.782-3.498-1.591-12.14-5.088-12.572-5.088-.134 0-2.715-1.102-5.735-2.449-28.085-12.522-29.682-13.049-32.733-10.802M30.95 255.8c.001 2.42.066 3.358.146 2.085.08-1.273.079-3.253-.002-4.4-.08-1.147-.145-.105-.144 2.315M229.32 268c0 1.21.075 1.705.167 1.1a8.899 8.899 0 000-2.2c-.092-.605-.167-.11-.167 1.1M30.924 285.8c.002 1.32.077 1.812.166 1.093.089-.719.087-1.799-.004-2.4s-.164-.013-.162 1.307m48.858 15.4c0 8.69.053 12.245.118 7.9.064-4.345.064-11.455 0-15.8-.065-4.345-.118-.79-.118 7.9m149.562-10.8c0 2.09.068 2.945.15 1.9a29.38 29.38 0 000-3.8c-.082-1.045-.15-.19-.15 1.9m91.947 17.3c-.05 11.605.044 21.1.209 21.1.272 0 .268-15.801-.01-34.8-.06-4.07-.15 2.095-.199 13.7m-147.998-19.3c0 .77.082 1.085.183.7.1-.385.1-1.015 0-1.4-.101-.385-.183-.07-.183.7M30.954 299.6c0 2.75.064 3.875.142 2.5a53.448 53.448 0 000-5c-.078-1.375-.142-.25-.142 2.5m198.246 3.376c0 .317.169.681.376.809.206.128.348-.132.315-.576-.069-.914-.691-1.123-.691-.233m-.394 3.524c.004.884.117 1.126.351.756.315-.497.16-2.056-.204-2.056-.084 0-.15.585-.147 1.3M30.972 317.4c0 5.06.057 7.075.127 4.477.07-2.597.069-6.737-.001-9.2-.07-2.462-.127-.337-.126 4.723m86.01 4.582c-1.065.432-54.749 54.027-58.293 58.197-2.211 2.602-2.911 3.782-3.796 6.405l-1.085 3.216-.111 41.736c-.125 46.692-.163 45.917 2.541 51.463 3.11 6.377 13.968 16.656 15.9 15.052 1.051-.872 1.114-3.848 1.079-51.251l-.035-47.4.954-3.271c1.611-5.523 1.846-5.796 24.469-28.329 25.478-25.376 25.397-25.262 24.904-35.156-.345-6.925-3.407-11.926-6.527-10.662m163.234 1.374c-2.057 2.181-2.82 5.197-2.794 11.052l.022 5.007 1.578 2.966c1.464 2.752 7.268 9.517 13.394 15.612.998.994 8.077 8.017 15.729 15.607 14.385 14.267 16.851 17.095 18.364 21.063L327.4 397l.2 50.039c.166 41.606.293 50.15.749 50.7 2.446 2.947 15.684-10.036 18.08-17.731 1.148-3.692 1.312-87.807.179-92.208-1.336-5.188-4.538-8.888-23.543-27.2-9.859-9.5-15.659-15.321-24.484-24.574-13.886-14.557-15.521-15.686-18.365-12.67m-129.087 34.346c-2.263 1.381-42.365 41.36-44.081 43.946-1.818 2.738-3.214 6.636-4.007 11.183-.798 4.577-.653 150.987.152 153.969 1.318 4.877 3.109 7.518 9.542 14.07 6.796 6.923 8.129 7.832 9.323 6.358.925-1.143.834 8.701.802-86.828-.03-87.626-.125-83.767 2.176-87.996 1.248-2.292 6.082-7.465 19.841-21.228l9.877-9.881 2.221-4.547c2.808-5.749 2.912-8.323.59-14.561-1.651-4.438-3.921-6.02-6.436-4.485m94.802.372c-5.644 6.042-4.585 20.659 1.8 24.844 3.288 2.155 24.634 24.706 27.718 29.282 2.383 3.537 2.238-2.204 2.214 87.553-.014 51.573.123 83.117.365 84.397.952 5.018 2.808 4.423 10.88-3.49 10.156-9.957 9.203-.6 9.396-92.294l.158-75.033-.841-3.539c-1.323-5.57-7.384-13.363-18.196-23.394-1.542-1.43-8.208-8.046-14.814-14.702-15.873-15.995-16.226-16.252-18.68-13.624m-62.63 6.526c.004.88.086 1.193.182.695.096-.497.092-1.217-.008-1.6-.1-.382-.179.025-.174.905m187.277 20c.001 7.04.055 9.864.121 6.275a407.56 407.56 0 000-12.8c-.066-3.451-.121-.515-.121 6.525m-187.285-5.8c0 .77.082 1.085.183.7.1-.385.1-1.015 0-1.4-.101-.385-.183-.07-.183.7m138.027 22.8c0 1.21.075 1.705.167 1.1a8.899 8.899 0 000-2.2c-.092-.605-.167-.11-.167 1.1M79.793 450c0 24.31.048 34.255.107 22.1a5518.78 5518.78 0 000-44.2c-.059-12.155-.107-2.21-.107 22.1m240.757-39c.001 2.42.066 3.358.146 2.085.08-1.273.079-3.253-.002-4.4-.08-1.147-.145-.105-.144 2.315m-223.718-1.9c.034 2.091.229 1.922.459-.4.081-.825.005-1.5-.171-1.5-.176 0-.306.855-.288 1.9m224.428 12.2c-.033 1.925.075 3.5.24 3.501.165 0 .25-1.125.188-2.5-.19-4.251-.365-4.661-.428-1.001m-224.46-.124c0 .427.158.874.35.993.193.119.35-.23.35-.776s-.157-.993-.35-.993c-.192 0-.35.349-.35.776m175.524 1.124c-.068.165-.032 9.66.081 21.1l.206 20.8.094-21.1c.086-19.045.035-21.811-.381-20.8m-175.352 7.03c-.112.292-.15 2.227-.085 4.3l.119 3.77.197-4.301c.195-4.261.162-4.795-.231-3.769M45.75 443.8c.001 2.42.066 3.358.146 2.085.08-1.273.079-3.253-.002-4.4-.08-1.147-.145-.105-.144 2.315m132.836 17.6c0 11 .051 15.442.114 9.872s.062-14.57 0-20c-.063-5.43-.115-.872-.114 10.128m175.548-17c0 1.65.071 2.325.157 1.5.087-.825.087-2.175 0-3-.086-.825-.157-.15-.157 1.5M96.972 460.6c0 5.06.057 7.075.127 4.477.07-2.597.069-6.737-.001-9.2-.07-2.462-.127-.337-.126 4.723M272 468.576c0 .317.18.688.4.824.22.136.4-.123.4-.576 0-.453-.18-.824-.4-.824-.22 0-.4.259-.4.576M96.948 477.6c0 2.31.066 3.255.147 2.1a36.327 36.327 0 000-4.2c-.081-1.155-.147-.21-.147 2.1M48.114 479c.003 1.1.081 1.503.173.895.092-.609.09-1.509-.005-2-.095-.492-.171.005-.168 1.105m273.162 15.7c.076 6.788.228 5.991.419-2.201.058-2.475-.03-4.5-.195-4.5-.165.001-.266 3.016-.224 6.701M96.95 500.6c.001 2.42.066 3.358.146 2.085.08-1.273.079-3.253-.002-4.4-.08-1.147-.145-.105-.144 2.315M221.2 511c0 2.603.079 4.654.176 4.557.281-.281.351-8.764.074-9.04-.137-.138-.25 1.88-.25 4.483M96.954 522.4c0 2.75.064 3.875.142 2.5a53.448 53.448 0 000-5c-.078-1.375-.142-.25-.142 2.5m124.37 11c.002 1.32.077 1.812.166 1.093.089-.719.087-1.799-.004-2.4s-.164-.013-.162 1.307M96.951 543.6c0 2.53.065 3.565.145 2.3a44.671 44.671 0 000-4.6c-.08-1.265-.145-.23-.145 2.3m175.633 14.8c0 9.57.052 13.485.116 8.7.063-4.785.063-12.615 0-17.4-.064-4.785-.116-.87-.116 8.7M178.582 578c0 8.47.053 11.935.117 7.7.065-4.235.065-11.165 0-15.4-.064-4.235-.117-.77-.117 7.7m-32.881.2c.004.88.086 1.193.182.695.096-.497.092-1.217-.008-1.6-.1-.382-.179.025-.174.905m126.857 6.4c0 3.08.063 4.287.139 2.682.076-1.604.076-4.124-.001-5.6-.077-1.475-.139-.162-.138 2.918m-165.758-.4c1.195 1.21 2.263 2.2 2.373 2.2.11 0-.778-.99-1.973-2.2-1.195-1.21-2.263-2.2-2.373-2.2-.11 0 .778.99 1.973 2.2m38.92 19.4c0 1.21.075 1.705.167 1.1a8.899 8.899 0 000-2.2c-.092-.605-.167-.11-.167 1.1m32.82 5.6c0 1.87.069 2.635.153 1.7.084-.935.084-2.465 0-3.4s-.153-.17-.153 1.7" fill="#fff"/>
  </g>
</svg>
